<?xml version="1.0" encoding="utf-8" standalone="no"?>
<!DOCTYPE svg PUBLIC "-//W3C//DTD SVG 1.1//EN"
  "http://www.w3.org/Graphics/SVG/1.1/DTD/svg11.dtd">
<!-- Created with matplotlib (https://matplotlib.org/) -->
<svg height="291.6pt" version="1.1" viewBox="0 0 921.15 291.6" width="921.15pt" xmlns="http://www.w3.org/2000/svg" xmlns:xlink="http://www.w3.org/1999/xlink">
 <metadata>
  <rdf:RDF xmlns:cc="http://creativecommons.org/ns#" xmlns:dc="http://purl.org/dc/elements/1.1/" xmlns:rdf="http://www.w3.org/1999/02/22-rdf-syntax-ns#">
   <cc:Work>
    <dc:type rdf:resource="http://purl.org/dc/dcmitype/StillImage"/>
    <dc:date>2022-04-29T14:24:05.184232</dc:date>
    <dc:format>image/svg+xml</dc:format>
    <dc:creator>
     <cc:Agent>
      <dc:title>Matplotlib v3.3.4, https://matplotlib.org/</dc:title>
     </cc:Agent>
    </dc:creator>
   </cc:Work>
  </rdf:RDF>
 </metadata>
 <defs>
  <style type="text/css">*{stroke-linecap:butt;stroke-linejoin:round;}</style>
 </defs>
 <g id="figure_1">
  <g id="patch_1">
   <path d="M 0 291.6 
L 921.15 291.6 
L 921.15 0 
L 0 0 
z
" style="fill:#ffffff;"/>
  </g>
  <g id="axes_1">
   <g id="PolyCollection_1">
    <path clip-path="url(#p8f404a73e2)" d="M -613.575 284.4 
L -599.715 284.4 
L -585.855 284.4 
L -571.995 284.4 
L -558.135 284.4 
L -544.275 284.4 
L -530.415 284.4 
L -516.555 284.4 
L -502.695 284.4 
L -488.835 284.4 
L -474.975 284.4 
L -461.115 284.4 
L -447.255 284.4 
L -433.395 284.4 
L -419.535 284.4 
L -405.675 284.4 
L -391.815 284.4 
L -377.955 284.4 
L -364.095 284.4 
L -350.235 284.4 
L -336.375 284.4 
L -322.515 284.4 
L -308.655 284.4 
L -294.795 284.4 
L -280.935 284.4 
L -267.075 284.4 
L -253.215 284.4 
L -239.355 284.4 
L -225.495 284.4 
L -211.635 284.4 
L -197.775 284.4 
L -183.915 284.4 
L -170.055 284.4 
L -156.195 284.4 
L -142.335 284.4 
L -128.475 284.4 
L -114.615 284.4 
L -100.755 284.4 
L -86.895 284.4 
L -73.035 284.4 
L -59.175 284.4 
L -45.315 284.4 
L -31.455 284.4 
L -17.595 284.4 
L -3.735 284.4 
L 10.125 284.4 
L 23.985 284.4 
L 37.845 284.4 
L 51.705 284.4 
L 65.565 284.4 
L 79.425 284.4 
L 93.285 284.4 
L 107.145 284.4 
L 121.005 284.4 
L 134.865 284.4 
L 148.725 284.4 
L 162.585 284.4 
L 176.445 284.4 
L 190.305 284.4 
L 204.165 284.4 
L 218.025 284.4 
L 231.885 284.4 
L 245.745 284.4 
L 259.605 284.4 
L 273.465 284.4 
L 287.325 284.4 
L 301.185 284.4 
L 315.045 284.4 
L 328.905 284.4 
L 342.765 284.4 
L 356.625 284.4 
L 370.485 284.4 
L 384.345 284.4 
L 398.205 284.4 
L 412.065 284.4 
L 425.925 284.4 
L 439.785 284.4 
L 453.645 284.4 
L 467.505 284.4 
L 481.365 284.4 
L 495.225 284.4 
L 509.085 284.4 
L 522.945 284.4 
L 536.805 284.4 
L 550.665 284.4 
L 564.525 284.4 
L 578.385 284.4 
L 592.245 284.4 
L 606.105 284.4 
L 619.965 284.4 
L 633.825 284.4 
L 647.685 284.4 
L 661.545 284.4 
L 675.405 284.4 
L 689.265 284.4 
L 703.125 284.4 
L 716.985 284.4 
L 730.845 284.4 
L 744.705 284.4 
L 758.565 284.4 
L 772.425 284.4 
L 786.285 284.4 
L 800.145 284.4 
L 814.005 284.4 
L 827.865 284.4 
L 841.725 284.4 
L 855.585 284.4 
L 869.445 284.4 
L 883.305 284.4 
L 897.165 284.4 
L 911.025 284.4 
L 924.885 284.4 
L 938.745 284.4 
L 952.605 284.4 
L 966.465 284.4 
L 980.325 284.4 
L 994.185 284.4 
L 1008.045 284.4 
L 1021.905 284.4 
L 1035.765 284.4 
L 1049.625 284.4 
L 1063.485 284.4 
L 1077.345 284.4 
L 1091.205 284.4 
L 1105.065 284.4 
L 1118.925 284.4 
L 1132.785 284.4 
L 1146.645 284.4 
L 1160.505 284.4 
L 1174.365 284.4 
L 1188.225 284.4 
L 1202.085 284.4 
L 1215.945 284.4 
L 1229.805 284.4 
L 1243.665 284.4 
L 1257.525 284.4 
L 1271.385 284.4 
L 1285.245 284.4 
L 1299.105 284.4 
L 1312.965 284.4 
L 1326.825 284.4 
L 1340.685 284.4 
L 1354.545 284.4 
L 1368.405 284.4 
L 1382.265 284.4 
L 1396.125 284.4 
L 1409.985 284.4 
L 1423.845 284.4 
L 1437.705 284.4 
L 1451.565 284.4 
L 1465.425 284.4 
L 1479.285 284.4 
L 1493.145 284.4 
L 1507.005 284.4 
L 1520.865 284.4 
L 1534.725 284.4 
L 1548.585 284.4 
L 1562.445 284.4 
L 1576.305 284.4 
L 1590.165 284.4 
L 1604.025 284.4 
L 1617.885 284.4 
L 1631.745 284.4 
L 1645.605 284.4 
L 1659.465 284.4 
L 1673.325 284.4 
L 1687.185 284.4 
L 1701.045 284.4 
L 1714.905 284.4 
L 1728.765 284.4 
L 1742.625 284.4 
L 1756.485 284.4 
L 1770.345 284.4 
L 1784.205 284.4 
L 1798.065 284.4 
L 1811.925 284.4 
L 1825.785 284.4 
L 1839.645 284.4 
L 1853.505 284.4 
L 1867.365 284.4 
L 1881.225 284.4 
L 1895.085 284.4 
L 1908.945 284.4 
L 1922.805 284.4 
L 1936.665 284.4 
L 1950.525 284.4 
L 1964.385 284.4 
L 1978.245 284.4 
L 1992.105 284.4 
L 2005.965 284.4 
L 2019.825 284.4 
L 2033.685 284.4 
L 2047.545 284.4 
L 2061.405 284.4 
L 2075.265 284.4 
L 2089.125 284.4 
L 2102.985 284.4 
L 2116.845 284.4 
L 2130.705 284.4 
L 2144.565 284.4 
L 2158.425 284.4 
L 2172.285 284.4 
L 2186.145 284.4 
L 2200.005 284.4 
L 2213.865 284.4 
L 2227.725 284.4 
L 2241.585 284.4 
L 2255.445 284.4 
L 2269.305 284.4 
L 2283.165 284.4 
L 2283.165 145.8 
L 2269.305 145.8 
L 2255.445 145.8 
L 2241.585 145.8 
L 2227.725 145.8 
L 2213.865 145.8 
L 2200.005 145.8 
L 2186.145 145.8 
L 2172.285 145.8 
L 2158.425 145.8 
L 2144.565 145.8 
L 2130.705 145.8 
L 2116.845 145.8 
L 2102.985 145.8 
L 2089.125 145.8 
L 2075.265 145.8 
L 2061.405 145.8 
L 2047.545 145.8 
L 2033.685 145.8 
L 2019.825 145.8 
L 2005.965 145.8 
L 1992.105 145.8 
L 1978.245 145.8 
L 1964.385 145.8 
L 1950.525 145.8 
L 1936.665 145.8 
L 1922.805 145.8 
L 1908.945 145.8 
L 1895.085 145.8 
L 1881.225 145.8 
L 1867.365 145.8 
L 1853.505 145.8 
L 1839.645 145.8 
L 1825.785 145.8 
L 1811.925 145.8 
L 1798.065 145.8 
L 1784.205 145.8 
L 1770.345 145.8 
L 1756.485 145.8 
L 1742.625 145.8 
L 1728.765 145.8 
L 1714.905 145.8 
L 1701.045 145.8 
L 1687.185 145.8 
L 1673.325 145.8 
L 1659.465 145.8 
L 1645.605 145.8 
L 1631.745 145.8 
L 1617.885 145.8 
L 1604.025 145.8 
L 1590.165 145.8 
L 1576.305 145.8 
L 1562.445 145.8 
L 1548.585 145.8 
L 1534.725 145.8 
L 1520.865 145.8 
L 1507.005 145.8 
L 1493.145 145.8 
L 1479.285 145.8 
L 1465.425 145.8 
L 1451.565 145.8 
L 1437.705 145.8 
L 1423.845 145.8 
L 1409.985 145.8 
L 1396.125 145.8 
L 1382.265 145.8 
L 1368.405 145.8 
L 1354.545 145.8 
L 1340.685 145.8 
L 1326.825 145.8 
L 1312.965 145.8 
L 1299.105 145.8 
L 1285.245 145.8 
L 1271.385 145.8 
L 1257.525 145.8 
L 1243.665 145.8 
L 1229.805 145.8 
L 1215.945 145.8 
L 1202.085 145.8 
L 1188.225 145.8 
L 1174.365 145.8 
L 1160.505 145.8 
L 1146.645 145.8 
L 1132.785 145.8 
L 1118.925 145.8 
L 1105.065 145.8 
L 1091.205 145.8 
L 1077.345 145.8 
L 1063.485 145.8 
L 1049.625 145.8 
L 1035.765 145.8 
L 1021.905 145.8 
L 1008.045 145.8 
L 994.185 145.8 
L 980.325 145.8 
L 966.465 145.8 
L 952.605 145.8 
L 938.745 145.8 
L 924.885 145.8 
L 911.025 145.8 
L 897.165 145.8 
L 883.305 145.8 
L 869.445 145.8 
L 855.585 145.8 
L 841.725 145.8 
L 827.865 145.8 
L 814.005 145.8 
L 800.145 145.8 
L 786.285 145.8 
L 772.425 145.8 
L 758.565 145.8 
L 744.705 145.8 
L 730.845 145.8 
L 716.985 145.8 
L 703.125 145.8 
L 689.265 145.8 
L 675.405 145.8 
L 661.545 145.8 
L 647.685 145.8 
L 633.825 145.8 
L 619.965 145.8 
L 606.105 145.8 
L 592.245 145.8 
L 578.385 145.8 
L 564.525 145.8 
L 550.665 145.8 
L 536.805 145.8 
L 522.945 145.8 
L 509.085 145.8 
L 495.225 145.8 
L 481.365 145.8 
L 467.505 145.8 
L 453.645 145.8 
L 439.785 145.8 
L 425.925 145.8 
L 412.065 145.8 
L 398.205 145.8 
L 384.345 145.8 
L 370.485 145.8 
L 356.625 145.8 
L 342.765 145.8 
L 328.905 145.8 
L 315.045 145.8 
L 301.185 145.8 
L 287.325 145.8 
L 273.465 145.8 
L 259.605 145.8 
L 245.745 145.8 
L 231.885 145.8 
L 218.025 145.8 
L 204.165 145.8 
L 190.305 145.8 
L 176.445 145.8 
L 162.585 145.8 
L 148.725 145.8 
L 134.865 145.8 
L 121.005 145.8 
L 107.145 145.8 
L 93.285 145.8 
L 79.425 145.8 
L 65.565 145.8 
L 51.705 145.8 
L 37.845 145.8 
L 23.985 145.8 
L 10.125 145.8 
L -3.735 145.8 
L -17.595 145.8 
L -31.455 145.8 
L -45.315 145.8 
L -59.175 145.8 
L -73.035 145.8 
L -86.895 145.8 
L -100.755 145.8 
L -114.615 145.8 
L -128.475 145.8 
L -142.335 145.8 
L -156.195 145.8 
L -170.055 145.8 
L -183.915 145.8 
L -197.775 145.8 
L -211.635 145.8 
L -225.495 145.8 
L -239.355 145.8 
L -253.215 145.8 
L -267.075 145.8 
L -280.935 145.8 
L -294.795 145.8 
L -308.655 145.8 
L -322.515 145.8 
L -336.375 145.8 
L -350.235 145.8 
L -364.095 145.8 
L -377.955 145.8 
L -391.815 145.8 
L -405.675 145.8 
L -419.535 145.8 
L -433.395 145.8 
L -447.255 145.8 
L -461.115 145.8 
L -474.975 145.8 
L -488.835 145.8 
L -502.695 145.8 
L -516.555 145.8 
L -530.415 145.8 
L -544.275 145.8 
L -558.135 145.8 
L -571.995 145.8 
L -585.855 145.8 
L -599.715 145.8 
L -613.575 145.8 
z
" style="fill:#c7c7c7;"/>
    <path clip-path="url(#p8f404a73e2)" d="M -613.575 145.8 
L -599.715 145.8 
L -585.855 145.8 
L -571.995 145.8 
L -558.135 145.8 
L -544.275 145.8 
L -530.415 145.8 
L -516.555 145.8 
L -502.695 145.8 
L -488.835 145.8 
L -474.975 145.8 
L -461.115 145.8 
L -447.255 145.8 
L -433.395 145.8 
L -419.535 145.8 
L -405.675 145.8 
L -391.815 145.8 
L -377.955 145.8 
L -364.095 145.8 
L -350.235 145.8 
L -336.375 145.8 
L -322.515 145.8 
L -308.655 145.8 
L -294.795 145.8 
L -280.935 145.8 
L -267.075 145.8 
L -253.215 145.8 
L -239.355 145.8 
L -225.495 145.8 
L -211.635 145.8 
L -197.775 145.8 
L -183.915 145.8 
L -170.055 145.8 
L -156.195 145.8 
L -142.335 145.8 
L -128.475 145.8 
L -114.615 145.8 
L -100.755 145.8 
L -86.895 145.8 
L -73.035 145.8 
L -59.175 145.8 
L -45.315 145.8 
L -31.455 145.8 
L -17.595 145.8 
L -3.735 145.8 
L 10.125 145.8 
L 23.985 145.8 
L 37.845 145.8 
L 51.705 145.8 
L 65.565 145.8 
L 79.425 145.8 
L 93.285 145.8 
L 107.145 145.8 
L 121.005 145.8 
L 134.865 145.8 
L 148.725 145.8 
L 162.585 145.8 
L 176.445 145.8 
L 190.305 145.8 
L 204.165 145.8 
L 218.025 145.8 
L 231.885 145.8 
L 245.745 145.8 
L 259.605 145.8 
L 273.465 145.8 
L 287.325 145.8 
L 301.185 145.8 
L 315.045 145.8 
L 328.905 145.8 
L 342.765 145.8 
L 356.625 145.8 
L 370.485 145.8 
L 384.345 145.8 
L 398.205 145.8 
L 412.065 145.8 
L 425.925 145.8 
L 439.785 145.8 
L 453.645 145.8 
L 467.505 145.8 
L 481.365 145.8 
L 495.225 145.8 
L 509.085 145.8 
L 522.945 145.8 
L 536.805 145.8 
L 550.665 145.8 
L 564.525 145.8 
L 578.385 145.8 
L 592.245 145.8 
L 606.105 145.8 
L 619.965 145.8 
L 633.825 145.8 
L 647.685 145.8 
L 661.545 145.8 
L 675.405 145.8 
L 689.265 145.8 
L 703.125 145.8 
L 716.985 145.8 
L 730.845 145.8 
L 744.705 145.8 
L 758.565 145.8 
L 772.425 145.8 
L 786.285 145.8 
L 800.145 145.8 
L 814.005 145.8 
L 827.865 145.8 
L 841.725 145.8 
L 855.585 145.8 
L 869.445 145.8 
L 883.305 145.8 
L 897.165 145.8 
L 911.025 145.8 
L 924.885 145.8 
L 938.745 145.8 
L 952.605 145.8 
L 966.465 145.8 
L 980.325 145.8 
L 994.185 145.8 
L 1008.045 145.8 
L 1021.905 145.8 
L 1035.765 145.8 
L 1049.625 145.8 
L 1063.485 145.8 
L 1077.345 145.8 
L 1091.205 145.8 
L 1105.065 145.8 
L 1118.925 145.8 
L 1132.785 145.8 
L 1146.645 145.8 
L 1160.505 145.8 
L 1174.365 145.8 
L 1188.225 145.8 
L 1202.085 145.8 
L 1215.945 145.8 
L 1229.805 145.8 
L 1243.665 145.8 
L 1257.525 145.8 
L 1271.385 145.8 
L 1285.245 145.8 
L 1299.105 145.8 
L 1312.965 145.8 
L 1326.825 145.8 
L 1340.685 145.8 
L 1354.545 145.8 
L 1368.405 145.8 
L 1382.265 145.8 
L 1396.125 145.8 
L 1409.985 145.8 
L 1423.845 145.8 
L 1437.705 145.8 
L 1451.565 145.8 
L 1465.425 145.8 
L 1479.285 145.8 
L 1493.145 145.8 
L 1507.005 145.8 
L 1520.865 145.8 
L 1534.725 145.8 
L 1548.585 145.8 
L 1562.445 145.8 
L 1576.305 145.8 
L 1590.165 145.8 
L 1604.025 145.8 
L 1617.885 145.8 
L 1631.745 145.8 
L 1645.605 145.8 
L 1659.465 145.8 
L 1673.325 145.8 
L 1687.185 145.8 
L 1701.045 145.8 
L 1714.905 145.8 
L 1728.765 145.8 
L 1742.625 145.8 
L 1756.485 145.8 
L 1770.345 145.8 
L 1784.205 145.8 
L 1798.065 145.8 
L 1811.925 145.8 
L 1825.785 145.8 
L 1839.645 145.8 
L 1853.505 145.8 
L 1867.365 145.8 
L 1881.225 145.8 
L 1895.085 145.8 
L 1908.945 145.8 
L 1922.805 145.8 
L 1936.665 145.8 
L 1950.525 145.8 
L 1964.385 145.8 
L 1978.245 145.8 
L 1992.105 145.8 
L 2005.965 145.8 
L 2019.825 145.8 
L 2033.685 145.8 
L 2047.545 145.8 
L 2061.405 145.8 
L 2075.265 145.8 
L 2089.125 145.8 
L 2102.985 145.8 
L 2116.845 145.8 
L 2130.705 145.8 
L 2144.565 145.8 
L 2158.425 145.8 
L 2172.285 145.8 
L 2186.145 145.8 
L 2200.005 145.8 
L 2213.865 145.8 
L 2227.725 145.8 
L 2241.585 145.8 
L 2255.445 145.8 
L 2269.305 145.8 
L 2283.165 145.8 
L 2283.165 7.2 
L 2269.305 7.2 
L 2255.445 7.2 
L 2241.585 7.2 
L 2227.725 7.2 
L 2213.865 7.2 
L 2200.005 7.2 
L 2186.145 7.2 
L 2172.285 7.2 
L 2158.425 7.2 
L 2144.565 7.2 
L 2130.705 7.2 
L 2116.845 7.2 
L 2102.985 7.2 
L 2089.125 7.2 
L 2075.265 7.2 
L 2061.405 7.2 
L 2047.545 7.2 
L 2033.685 7.2 
L 2019.825 7.2 
L 2005.965 7.2 
L 1992.105 7.2 
L 1978.245 7.2 
L 1964.385 7.2 
L 1950.525 7.2 
L 1936.665 7.2 
L 1922.805 7.2 
L 1908.945 7.2 
L 1895.085 7.2 
L 1881.225 7.2 
L 1867.365 7.2 
L 1853.505 7.2 
L 1839.645 7.2 
L 1825.785 7.2 
L 1811.925 7.2 
L 1798.065 7.2 
L 1784.205 7.2 
L 1770.345 7.2 
L 1756.485 7.2 
L 1742.625 7.2 
L 1728.765 7.2 
L 1714.905 7.2 
L 1701.045 7.2 
L 1687.185 7.2 
L 1673.325 7.2 
L 1659.465 7.2 
L 1645.605 7.2 
L 1631.745 7.2 
L 1617.885 7.2 
L 1604.025 7.2 
L 1590.165 7.2 
L 1576.305 7.2 
L 1562.445 7.2 
L 1548.585 7.2 
L 1534.725 7.2 
L 1520.865 7.2 
L 1507.005 7.2 
L 1493.145 7.2 
L 1479.285 7.2 
L 1465.425 7.2 
L 1451.565 7.2 
L 1437.705 7.2 
L 1423.845 7.2 
L 1409.985 7.2 
L 1396.125 7.2 
L 1382.265 7.2 
L 1368.405 7.2 
L 1354.545 7.2 
L 1340.685 7.2 
L 1326.825 7.2 
L 1312.965 7.2 
L 1299.105 7.2 
L 1285.245 7.2 
L 1271.385 7.2 
L 1257.525 7.2 
L 1243.665 7.2 
L 1229.805 7.2 
L 1215.945 7.2 
L 1202.085 7.2 
L 1188.225 7.2 
L 1174.365 7.2 
L 1160.505 7.2 
L 1146.645 7.2 
L 1132.785 7.2 
L 1118.925 7.2 
L 1105.065 7.2 
L 1091.205 7.2 
L 1077.345 7.2 
L 1063.485 7.2 
L 1049.625 7.2 
L 1035.765 7.2 
L 1021.905 7.2 
L 1008.045 7.2 
L 994.185 7.2 
L 980.325 7.2 
L 966.465 7.2 
L 952.605 7.2 
L 938.745 7.2 
L 924.885 7.2 
L 911.025 7.2 
L 897.165 7.2 
L 883.305 7.2 
L 869.445 7.2 
L 855.585 7.2 
L 841.725 7.2 
L 827.865 7.2 
L 814.005 7.2 
L 800.145 7.2 
L 786.285 7.2 
L 772.425 7.2 
L 758.565 7.2 
L 744.705 7.2 
L 730.845 7.2 
L 716.985 7.2 
L 703.125 7.2 
L 689.265 7.2 
L 675.405 7.2 
L 661.545 7.2 
L 647.685 7.2 
L 633.825 7.2 
L 619.965 7.2 
L 606.105 7.2 
L 592.245 7.2 
L 578.385 7.2 
L 564.525 7.2 
L 550.665 7.2 
L 536.805 7.2 
L 522.945 7.2 
L 509.085 7.2 
L 495.225 7.2 
L 481.365 7.2 
L 467.505 7.2 
L 453.645 7.2 
L 439.785 7.2 
L 425.925 7.2 
L 412.065 7.2 
L 398.205 7.2 
L 384.345 7.2 
L 370.485 7.2 
L 356.625 7.2 
L 342.765 7.2 
L 328.905 7.2 
L 315.045 7.2 
L 301.185 7.2 
L 287.325 7.2 
L 273.465 7.2 
L 259.605 7.2 
L 245.745 7.2 
L 231.885 7.2 
L 218.025 7.2 
L 204.165 7.2 
L 190.305 7.2 
L 176.445 7.2 
L 162.585 7.2 
L 148.725 7.2 
L 134.865 7.2 
L 121.005 7.2 
L 107.145 7.2 
L 93.285 7.2 
L 79.425 7.2 
L 65.565 7.2 
L 51.705 7.2 
L 37.845 7.2 
L 23.985 7.2 
L 10.125 7.2 
L -3.735 7.2 
L -17.595 7.2 
L -31.455 7.2 
L -45.315 7.2 
L -59.175 7.2 
L -73.035 7.2 
L -86.895 7.2 
L -100.755 7.2 
L -114.615 7.2 
L -128.475 7.2 
L -142.335 7.2 
L -156.195 7.2 
L -170.055 7.2 
L -183.915 7.2 
L -197.775 7.2 
L -211.635 7.2 
L -225.495 7.2 
L -239.355 7.2 
L -253.215 7.2 
L -267.075 7.2 
L -280.935 7.2 
L -294.795 7.2 
L -308.655 7.2 
L -322.515 7.2 
L -336.375 7.2 
L -350.235 7.2 
L -364.095 7.2 
L -377.955 7.2 
L -391.815 7.2 
L -405.675 7.2 
L -419.535 7.2 
L -433.395 7.2 
L -447.255 7.2 
L -461.115 7.2 
L -474.975 7.2 
L -488.835 7.2 
L -502.695 7.2 
L -516.555 7.2 
L -530.415 7.2 
L -544.275 7.2 
L -558.135 7.2 
L -571.995 7.2 
L -585.855 7.2 
L -599.715 7.2 
L -613.575 7.2 
z
" style="fill:#c7c7c7;"/>
   </g>
   <g id="PathCollection_1"/>
   <g id="PathCollection_2">
    <path clip-path="url(#p8f404a73e2)" d="M -613.575 225.495 
L -592.785 215.1 
L -613.575 204.705 
z
" style="fill:#dddddd;stroke:#dddddd;stroke-width:0.5;"/>
    <path clip-path="url(#p8f404a73e2)" d="M -613.575 86.895 
L -592.785 76.5 
L -613.575 66.105 
z
" style="fill:#dddddd;stroke:#dddddd;stroke-width:0.5;"/>
   </g>
   <g id="PathCollection_3">
    <path clip-path="url(#p8f404a73e2)" d="M -1 284.4 
L 922.15 284.4 
L 922.15 284.4 
" style="fill:none;stroke:#555555;stroke-width:0.5;"/>
    <path clip-path="url(#p8f404a73e2)" d="M -1 145.8 
L 922.15 145.8 
L 922.15 145.8 
" style="fill:none;stroke:#555555;stroke-width:0.5;"/>
   </g>
   <g id="PathCollection_4">
    <path clip-path="url(#p8f404a73e2)" d="M -1 145.8 
L 922.15 145.8 
L 922.15 145.8 
" style="fill:none;stroke:#555555;stroke-width:0.5;"/>
    <path clip-path="url(#p8f404a73e2)" d="M -1 7.2 
L 922.15 7.2 
L 922.15 7.2 
" style="fill:none;stroke:#555555;stroke-width:0.5;"/>
   </g>
   <g id="PatchCollection_1">
    <path clip-path="url(#p8f404a73e2)" d="M 356.625 158.8284 
C 360.300715 158.8284 363.826377 157.368023 366.4255 154.7689 
C 369.024623 152.169777 370.485 148.644115 370.485 144.9684 
C 370.485 141.292685 369.024623 137.767023 366.4255 135.1679 
C 363.826377 132.568777 360.300715 131.1084 356.625 131.1084 
C 352.949285 131.1084 349.423623 132.568777 346.8245 135.1679 
C 344.225377 137.767023 342.765 141.292685 342.765 144.9684 
C 342.765 148.644115 344.225377 152.169777 346.8245 154.7689 
C 349.423623 157.368023 352.949285 158.8284 356.625 158.8284 
z
" style="fill:#008000;stroke:#008000;"/>
    <path clip-path="url(#p8f404a73e2)" d="M 468.868548 142.72323 
L 419.315144 160.349757 
L 419.093399 149.263974 
L 356.735873 150.511291 
L 356.514127 139.425509 
L 418.871654 138.178192 
L 418.649909 127.092409 
z
" style="fill:#008000;stroke:#008000;"/>
    <path clip-path="url(#p8f404a73e2)" d="M 772.425 156.888 
L 772.425 134.712 
L 841.725 134.712 
L 841.725 156.888 
z
" style="fill:#f1b514;stroke:#302404;stroke-width:0.5;"/>
    <path clip-path="url(#p8f404a73e2)" d="M 513.578344 154.835046 
L 511.899827 136.235244 
L 536.746856 133.992954 
L 538.425373 152.592756 
z
" style="fill:#d95558;stroke:#831d20;stroke-width:0.5;"/>
    <path clip-path="url(#p8f404a73e2)" d="M 651.2886 153.751693 
L 651.2886 135.076307 
L 676.2366 135.076307 
L 676.2366 153.751693 
z
" style="fill:#d95558;stroke:#831d20;stroke-width:0.5;"/>
    <path clip-path="url(#p8f404a73e2)" d="M 720.5886 96.925693 
L 720.5886 78.250307 
L 745.5366 78.250307 
L 745.5366 96.925693 
z
" style="fill:#d95558;stroke:#831d20;stroke-width:0.5;"/>
    <path clip-path="url(#p8f404a73e2)" d="M 356.625 151.8984 
C 358.462857 151.8984 360.225689 151.168211 361.52525 149.86865 
C 362.824811 148.569089 363.555 146.806257 363.555 144.9684 
C 363.555 143.130543 362.824811 141.367711 361.52525 140.06815 
C 360.225689 138.768589 358.462857 138.0384 356.625 138.0384 
C 354.787143 138.0384 353.024311 138.768589 351.72475 140.06815 
C 350.425189 141.367711 349.695 143.130543 349.695 144.9684 
C 349.695 146.806257 350.425189 148.569089 351.72475 149.86865 
C 353.024311 151.168211 354.787143 151.8984 356.625 151.8984 
z
" style="fill:#1d7eea;stroke:#00478f;stroke-width:0.5;"/>
   </g>
   <g id="line2d_1">
    <path clip-path="url(#p8f404a73e2)" d="M 356.625 144.9684 
" style="fill:none;stroke:#ffd700;stroke-linecap:square;stroke-width:2;"/>
   </g>
   <g id="line2d_2">
    <path clip-path="url(#p8f404a73e2)" d="M 356.625 144.9684 
L 369.099 144.71892 
L 381.573 144.46944 
L 394.047 144.21996 
L 406.521 143.97048 
L 418.995 143.721 
" style="fill:none;stroke:#ffd700;stroke-linecap:square;stroke-width:2;"/>
   </g>
   <g id="line2d_3">
    <path clip-path="url(#p8f404a73e2)" d="M 418.995 143.721 
L 431.469 143.47152 
L 443.943 143.22204 
L 456.417 142.97256 
L 468.891 142.72308 
L 481.365 142.4736 
" style="fill:none;stroke:#ffd700;stroke-linecap:square;stroke-width:2;"/>
   </g>
   <g id="line2d_4">
    <path clip-path="url(#p8f404a73e2)" d="M 356.625 144.9684 
L 369.099 144.71892 
L 381.570878 144.382355 
L 394.032729 143.784379 
L 406.465616 142.750448 
L 418.832085 141.106518 
" style="fill:none;stroke:#ffd700;stroke-linecap:square;stroke-width:2;"/>
   </g>
   <g id="line2d_5">
    <path clip-path="url(#p8f404a73e2)" d="M 418.832085 141.106518 
L 431.066113 138.681533 
L 443.122236 135.484701 
L 455.00711 131.698775 
L 466.752493 127.498889 
L 478.40745 123.053581 
" style="fill:none;stroke:#ffd700;stroke-linecap:square;stroke-width:2;"/>
   </g>
   <g id="line2d_6">
    <path clip-path="url(#p8f404a73e2)" d="M 356.625 144.9684 
L 369.099 144.71892 
L 381.574362 144.55654 
L 394.050157 144.655763 
L 406.514442 145.191751 
L 418.936752 146.339906 
" style="fill:none;stroke:#ffd700;stroke-linecap:square;stroke-width:2;"/>
   </g>
   <g id="line2d_7">
    <path clip-path="url(#p8f404a73e2)" d="M 418.936752 146.339906 
L 431.257969 148.27372 
L 443.432287 150.985878 
L 455.459051 154.293508 
L 467.362989 158.020344 
L 479.186388 161.996023 
" style="fill:none;stroke:#ffd700;stroke-linecap:square;stroke-width:2;"/>
   </g>
   <g id="line2d_8">
    <path clip-path="url(#p8f404a73e2)" d="M 479.186388 161.996023 
L 490.981813 166.054179 
L 502.777238 170.112336 
L 514.572662 174.170492 
L 526.368087 178.228649 
L 538.163511 182.286805 
" style="fill:none;stroke:#ffd700;stroke-linecap:square;stroke-width:2;"/>
   </g>
   <g id="line2d_9">
    <path clip-path="url(#p8f404a73e2)" d="M 418.936752 146.339906 
L 431.257969 148.27372 
L 443.411678 151.073605 
L 455.337083 154.725556 
L 466.974526 159.211303 
L 478.265793 164.508407 
" style="fill:none;stroke:#ffd700;stroke-linecap:square;stroke-width:2;"/>
   </g>
   <g id="line2d_10">
    <path clip-path="url(#p8f404a73e2)" d="M 478.265793 164.508407 
L 489.154399 170.590369 
L 499.635596 177.351608 
L 509.77211 184.620344 
L 519.648198 192.239789 
L 529.362538 200.064774 
" style="fill:none;stroke:#ffd700;stroke-linecap:square;stroke-width:2;"/>
   </g>
   <g id="line2d_11">
    <path clip-path="url(#p8f404a73e2)" d="M 481.365 142.4736 
L 493.839 142.22412 
L 506.313 141.97464 
L 518.787 141.72516 
L 531.261 141.47568 
L 543.735 141.2262 
" style="fill:none;stroke:#ffd700;stroke-dasharray:7.4,3.2;stroke-dashoffset:0;stroke-width:2;"/>
   </g>
   <g id="line2d_12">
    <path clip-path="url(#p8f404a73e2)" d="M 543.735 141.2262 
L 556.209 140.97672 
L 568.683 140.72724 
L 581.157 140.47776 
L 593.631 140.22828 
L 606.105 139.9788 
" style="fill:none;stroke:#ffd700;stroke-linecap:square;stroke-width:2;"/>
   </g>
   <g id="line2d_13">
    <path clip-path="url(#p8f404a73e2)" d="M 481.365 142.4736 
L 493.839 142.22412 
L 506.310878 141.887555 
L 518.772729 141.289579 
L 531.205616 140.255648 
L 543.572085 138.611718 
" style="fill:none;stroke:#ffd700;stroke-dasharray:7.4,3.2;stroke-dashoffset:0;stroke-width:2;"/>
   </g>
   <g id="line2d_14">
    <path clip-path="url(#p8f404a73e2)" d="M 543.572085 138.611718 
L 555.806113 136.186733 
L 567.862236 132.989901 
L 579.74711 129.203975 
L 591.492493 125.004089 
L 603.14745 120.558781 
" style="fill:none;stroke:#ffd700;stroke-linecap:square;stroke-width:2;"/>
   </g>
   <g id="line2d_15">
    <path clip-path="url(#p8f404a73e2)" d="M 481.365 142.4736 
L 493.839 142.22412 
L 506.314362 142.06174 
L 518.790157 142.160963 
L 531.254442 142.696951 
L 543.676752 143.845106 
" style="fill:none;stroke:#ffd700;stroke-dasharray:7.4,3.2;stroke-dashoffset:0;stroke-width:2;"/>
   </g>
   <g id="line2d_16">
    <path clip-path="url(#p8f404a73e2)" d="M 543.676752 143.845106 
L 555.997969 145.77892 
L 568.172287 148.491078 
L 580.199051 151.798708 
L 592.102989 155.525544 
L 603.926388 159.501223 
" style="fill:none;stroke:#ffd700;stroke-linecap:square;stroke-width:2;"/>
   </g>
   <g id="line2d_17">
    <path clip-path="url(#p8f404a73e2)" d="M 418.995 143.721 
L 431.469 143.47152 
L 443.940878 143.134955 
L 456.402729 142.536979 
L 468.835616 141.503048 
L 481.202085 139.859118 
" style="fill:none;stroke:#ffd700;stroke-linecap:square;stroke-width:2;"/>
   </g>
   <g id="line2d_18">
    <path clip-path="url(#p8f404a73e2)" d="M 481.202085 139.859118 
L 493.436113 137.434133 
L 505.492236 134.237301 
L 517.37711 130.451375 
L 529.122493 126.251489 
L 540.77745 121.806181 
" style="fill:none;stroke:#ffd700;stroke-linecap:square;stroke-width:2;"/>
   </g>
   <g id="line2d_19">
    <path clip-path="url(#p8f404a73e2)" d="M 540.77745 121.806181 
L 552.401156 117.27958 
L 564.024863 112.752978 
L 575.648569 108.226376 
L 587.272276 103.699775 
L 598.895982 99.173173 
" style="fill:none;stroke:#ffd700;stroke-linecap:square;stroke-width:2;"/>
   </g>
   <g id="line2d_20">
    <path clip-path="url(#p8f404a73e2)" d="M 481.202085 139.859118 
L 493.436113 137.434133 
L 505.468136 134.150468 
L 517.237962 130.02455 
L 528.686714 125.077017 
L 539.757122 119.33262 
" style="fill:none;stroke:#ffd700;stroke-linecap:square;stroke-width:2;"/>
   </g>
   <g id="line2d_21">
    <path clip-path="url(#p8f404a73e2)" d="M 539.757122 119.33262 
L 550.393804 112.820095 
L 560.59624 105.645129 
L 570.433975 97.976854 
L 579.997466 89.968565 
L 589.391119 81.76137 
" style="fill:none;stroke:#ffd700;stroke-linecap:square;stroke-width:2;"/>
   </g>
   <g id="line2d_22">
    <path clip-path="url(#p8f404a73e2)" d="M 418.995 143.721 
L 431.469 143.47152 
L 443.944362 143.30914 
L 456.420157 143.408363 
L 468.884442 143.944351 
L 481.306752 145.092506 
" style="fill:none;stroke:#ffd700;stroke-linecap:square;stroke-width:2;"/>
   </g>
   <g id="line2d_23">
    <path clip-path="url(#p8f404a73e2)" d="M 481.306752 145.092506 
L 493.627969 147.02632 
L 505.802287 149.738478 
L 517.829051 153.046108 
L 529.732989 156.772944 
L 541.556388 160.748623 
" style="fill:none;stroke:#ffd700;stroke-dasharray:7.4,3.2;stroke-dashoffset:0;stroke-width:2;"/>
   </g>
   <g id="line2d_24">
    <path clip-path="url(#p8f404a73e2)" d="M 541.556388 160.748623 
L 553.351813 164.806779 
L 565.147238 168.864936 
L 576.942662 172.923092 
L 588.738087 176.981249 
L 600.533511 181.039405 
" style="fill:none;stroke:#ffd700;stroke-linecap:square;stroke-width:2;"/>
   </g>
   <g id="line2d_25">
    <path clip-path="url(#p8f404a73e2)" d="M 481.306752 145.092506 
L 493.627969 147.02632 
L 505.781678 149.826205 
L 517.707083 153.478156 
L 529.344526 157.963903 
L 540.635793 163.261007 
" style="fill:none;stroke:#ffd700;stroke-dasharray:7.4,3.2;stroke-dashoffset:0;stroke-width:2;"/>
   </g>
   <g id="line2d_26">
    <path clip-path="url(#p8f404a73e2)" d="M 540.635793 163.261007 
L 551.524399 169.342969 
L 562.005596 176.104208 
L 572.14211 183.372944 
L 582.018198 190.992389 
L 591.732538 198.817374 
" style="fill:none;stroke:#ffd700;stroke-linecap:square;stroke-width:2;"/>
   </g>
   <g id="line2d_27">
    <path clip-path="url(#p8f404a73e2)" d="M 478.40745 123.053581 
L 490.031156 118.52698 
L 501.654863 114.000378 
L 513.278569 109.473776 
L 524.902276 104.947175 
L 536.525982 100.420573 
" style="fill:none;stroke:#ffd700;stroke-linecap:square;stroke-width:2;"/>
   </g>
   <g id="line2d_28">
    <path clip-path="url(#p8f404a73e2)" d="M 418.832085 141.106518 
L 431.066113 138.681533 
L 443.098136 135.397868 
L 454.867962 131.27195 
L 466.316714 126.324417 
L 477.387122 120.58002 
" style="fill:none;stroke:#ffd700;stroke-linecap:square;stroke-width:2;"/>
   </g>
   <g id="line2d_29">
    <path clip-path="url(#p8f404a73e2)" d="M 477.387122 120.58002 
L 488.023804 114.067495 
L 498.22624 106.892529 
L 508.063975 99.224254 
L 517.627466 91.215965 
L 527.021119 83.00877 
" style="fill:none;stroke:#ffd700;stroke-linecap:square;stroke-width:2;"/>
   </g>
   <g id="line2d_30">
    <path clip-path="url(#p8f404a73e2)" d="M 538.163511 182.286805 
L 549.958936 186.344962 
L 561.754361 190.403118 
L 573.549785 194.461275 
L 585.34521 198.519431 
L 597.140634 202.577588 
" style="fill:none;stroke:#ffd700;stroke-linecap:square;stroke-width:2;"/>
   </g>
   <g id="line2d_31">
    <path clip-path="url(#p8f404a73e2)" d="M 479.186388 161.996023 
L 490.981813 166.054179 
L 502.805212 170.029857 
L 514.709151 173.756693 
L 526.735914 177.064323 
L 538.910232 179.776482 
" style="fill:none;stroke:#ffd700;stroke-linecap:square;stroke-width:2;"/>
   </g>
   <g id="line2d_32">
    <path clip-path="url(#p8f404a73e2)" d="M 538.910232 179.776482 
L 551.231449 181.710296 
L 563.651279 182.858188 
L 576.113073 183.394035 
L 588.586374 183.493205 
L 601.059241 183.330825 
" style="fill:none;stroke:#ffd700;stroke-linecap:square;stroke-width:2;"/>
   </g>
   <g id="line2d_33">
    <path clip-path="url(#p8f404a73e2)" d="M 479.186388 161.996023 
L 490.981813 166.054179 
L 502.748544 170.194567 
L 514.425664 174.580675 
L 525.941687 179.372822 
L 537.207658 184.725178 
" style="fill:none;stroke:#ffd700;stroke-linecap:square;stroke-width:2;"/>
   </g>
   <g id="line2d_34">
    <path clip-path="url(#p8f404a73e2)" d="M 537.207658 184.725178 
L 548.110547 190.7815 
L 558.607625 197.518055 
L 568.761217 204.762918 
L 578.655208 212.359102 
L 588.387934 220.161205 
" style="fill:none;stroke:#ffd700;stroke-linecap:square;stroke-width:2;"/>
   </g>
   <g id="line2d_35">
    <path clip-path="url(#p8f404a73e2)" d="M 529.362538 200.064774 
L 539.022065 207.957442 
L 548.681593 215.850109 
L 558.341121 223.742777 
L 568.000648 231.635444 
L 577.660176 239.528112 
" style="fill:none;stroke:#ffd700;stroke-linecap:square;stroke-width:2;"/>
   </g>
   <g id="line2d_36">
    <path clip-path="url(#p8f404a73e2)" d="M 478.265793 164.508407 
L 489.154399 170.590369 
L 499.585875 177.426765 
L 509.508039 184.983397 
L 518.871255 193.222462 
L 527.628685 202.102746 
" style="fill:none;stroke:#ffd700;stroke-linecap:square;stroke-width:2;"/>
   </g>
   <g id="line2d_37">
    <path clip-path="url(#p8f404a73e2)" d="M 527.628685 202.102746 
L 535.73652 211.579824 
L 543.226877 221.553008 
L 550.218101 231.882879 
L 556.843541 242.45154 
L 563.246051 253.15699 
" style="fill:none;stroke:#ffd700;stroke-linecap:square;stroke-width:2;"/>
   </g>
   <g id="line2d_38">
    <path clip-path="url(#p8f404a73e2)" d="M 606.105 139.9788 
L 618.579 139.72932 
L 631.053 139.47984 
L 643.527 139.23036 
L 656.001 138.98088 
L 668.475 138.7314 
" style="fill:none;stroke:#ffd700;stroke-dasharray:7.4,3.2;stroke-dashoffset:0;stroke-width:2;"/>
   </g>
   <g id="line2d_39">
    <path clip-path="url(#p8f404a73e2)" d="M 543.735 141.2262 
L 556.209 140.97672 
L 568.680878 140.640155 
L 581.142729 140.042179 
L 593.575616 139.008248 
L 605.942085 137.364318 
" style="fill:none;stroke:#ffd700;stroke-linecap:square;stroke-width:2;"/>
   </g>
   <g id="line2d_40">
    <path clip-path="url(#p8f404a73e2)" d="M 605.942085 137.364318 
L 618.176113 134.939333 
L 630.232236 131.742501 
L 642.11711 127.956575 
L 653.862493 123.756689 
L 665.51745 119.311381 
" style="fill:none;stroke:#ffd700;stroke-linecap:square;stroke-width:2;"/>
   </g>
   <g id="line2d_41">
    <path clip-path="url(#p8f404a73e2)" d="M 543.735 141.2262 
L 556.209 140.97672 
L 568.684362 140.81434 
L 581.160157 140.913563 
L 593.624442 141.449551 
L 606.046752 142.597706 
" style="fill:none;stroke:#ffd700;stroke-linecap:square;stroke-width:2;"/>
   </g>
   <g id="line2d_42">
    <path clip-path="url(#p8f404a73e2)" d="M 606.046752 142.597706 
L 618.367969 144.53152 
L 630.542287 147.243678 
L 642.569051 150.551308 
L 654.472989 154.278144 
L 666.296388 158.253823 
" style="fill:none;stroke:#ffd700;stroke-linecap:square;stroke-width:2;"/>
   </g>
   <g id="line2d_43">
    <path clip-path="url(#p8f404a73e2)" d="M 603.14745 120.558781 
L 614.771156 116.03218 
L 626.394863 111.505578 
L 638.018569 106.978976 
L 649.642276 102.452375 
L 661.265982 97.925773 
" style="fill:none;stroke:#ffd700;stroke-linecap:square;stroke-width:2;"/>
   </g>
   <g id="line2d_44">
    <path clip-path="url(#p8f404a73e2)" d="M 543.572085 138.611718 
L 555.806113 136.186733 
L 567.838136 132.903068 
L 579.607962 128.77715 
L 591.056714 123.829617 
L 602.127122 118.08522 
" style="fill:none;stroke:#ffd700;stroke-linecap:square;stroke-width:2;"/>
   </g>
   <g id="line2d_45">
    <path clip-path="url(#p8f404a73e2)" d="M 602.127122 118.08522 
L 612.763804 111.572695 
L 622.96624 104.397729 
L 632.803975 96.729454 
L 642.367466 88.721165 
L 651.761119 80.51397 
" style="fill:none;stroke:#ffd700;stroke-linecap:square;stroke-width:2;"/>
   </g>
   <g id="line2d_46">
    <path clip-path="url(#p8f404a73e2)" d="M 603.926388 159.501223 
L 615.721813 163.559379 
L 627.517238 167.617536 
L 639.312662 171.675692 
L 651.108087 175.733849 
L 662.903511 179.792005 
" style="fill:none;stroke:#ffd700;stroke-linecap:square;stroke-width:2;"/>
   </g>
   <g id="line2d_47">
    <path clip-path="url(#p8f404a73e2)" d="M 543.676752 143.845106 
L 555.997969 145.77892 
L 568.151678 148.578805 
L 580.077083 152.230756 
L 591.714526 156.716503 
L 603.005793 162.013607 
" style="fill:none;stroke:#ffd700;stroke-linecap:square;stroke-width:2;"/>
   </g>
   <g id="line2d_48">
    <path clip-path="url(#p8f404a73e2)" d="M 603.005793 162.013607 
L 613.894399 168.095569 
L 624.375596 174.856808 
L 634.51211 182.125544 
L 644.388198 189.744989 
L 654.102538 197.569974 
" style="fill:none;stroke:#ffd700;stroke-linecap:square;stroke-width:2;"/>
   </g>
   <g id="line2d_49">
    <path clip-path="url(#p8f404a73e2)" d="M 598.895982 99.173173 
L 610.519689 94.646572 
L 622.143395 90.11997 
L 633.767102 85.593368 
L 645.390809 81.066767 
L 657.014515 76.540165 
" style="fill:none;stroke:#ffd700;stroke-linecap:square;stroke-width:2;"/>
   </g>
   <g id="line2d_50">
    <path clip-path="url(#p8f404a73e2)" d="M 540.77745 121.806181 
L 552.401156 117.27958 
L 563.992904 112.67196 
L 575.485285 107.8224 
L 586.800462 102.573568 
L 597.843385 96.774975 
" style="fill:none;stroke:#ffd700;stroke-linecap:square;stroke-width:2;"/>
   </g>
   <g id="line2d_51">
    <path clip-path="url(#p8f404a73e2)" d="M 597.843385 96.774975 
L 608.495364 90.287498 
L 618.714655 83.13656 
L 628.570408 75.491457 
L 638.152718 67.505695 
L 647.565659 59.320627 
" style="fill:none;stroke:#ffd700;stroke-linecap:square;stroke-width:2;"/>
   </g>
   <g id="line2d_52">
    <path clip-path="url(#p8f404a73e2)" d="M 540.77745 121.806181 
L 552.401156 117.27958 
L 564.056113 112.834272 
L 575.801496 108.634386 
L 587.686369 104.848459 
L 599.742492 101.651628 
" style="fill:none;stroke:#ffd700;stroke-linecap:square;stroke-width:2;"/>
   </g>
   <g id="line2d_53">
    <path clip-path="url(#p8f404a73e2)" d="M 599.742492 101.651628 
L 611.976521 99.226643 
L 624.340513 97.583009 
L 636.770911 96.549251 
L 649.230269 95.951361 
L 661.699653 95.61483 
" style="fill:none;stroke:#ffd700;stroke-linecap:square;stroke-width:2;"/>
   </g>
   <g id="line2d_54">
    <path clip-path="url(#p8f404a73e2)" d="M 589.391119 81.76137 
L 598.727298 73.488737 
L 608.063476 65.216105 
L 617.399655 56.943472 
L 626.735834 48.67084 
L 636.072012 40.398208 
" style="fill:none;stroke:#ffd700;stroke-linecap:square;stroke-width:2;"/>
   </g>
   <g id="line2d_55">
    <path clip-path="url(#p8f404a73e2)" d="M 539.757122 119.33262 
L 550.393804 112.820095 
L 560.543554 105.572019 
L 570.155596 97.624652 
L 579.181848 89.017748 
L 587.577156 79.794364 
" style="fill:none;stroke:#ffd700;stroke-linecap:square;stroke-width:2;"/>
   </g>
   <g id="line2d_56">
    <path clip-path="url(#p8f404a73e2)" d="M 587.577156 79.794364 
L 595.299524 70.000639 
L 602.385068 59.735899 
L 608.957616 49.134716 
L 615.155123 38.309561 
L 621.124407 27.356643 
" style="fill:none;stroke:#ffd700;stroke-linecap:square;stroke-width:2;"/>
   </g>
   <g id="line2d_57">
    <path clip-path="url(#p8f404a73e2)" d="M 600.533511 181.039405 
L 612.328936 185.097562 
L 624.124361 189.155718 
L 635.919785 193.213875 
L 647.71521 197.272031 
L 659.510634 201.330188 
" style="fill:none;stroke:#ffd700;stroke-linecap:square;stroke-width:2;"/>
   </g>
   <g id="line2d_58">
    <path clip-path="url(#p8f404a73e2)" d="M 541.556388 160.748623 
L 553.351813 164.806779 
L 565.175212 168.782457 
L 577.079151 172.509293 
L 589.105914 175.816923 
L 601.280232 178.529082 
" style="fill:none;stroke:#ffd700;stroke-linecap:square;stroke-width:2;"/>
   </g>
   <g id="line2d_59">
    <path clip-path="url(#p8f404a73e2)" d="M 601.280232 178.529082 
L 613.601449 180.462896 
L 626.021279 181.610788 
L 638.483073 182.146635 
L 650.956374 182.245805 
L 663.429241 182.083425 
" style="fill:none;stroke:#ffd700;stroke-linecap:square;stroke-width:2;"/>
   </g>
   <g id="line2d_60">
    <path clip-path="url(#p8f404a73e2)" d="M 541.556388 160.748623 
L 553.351813 164.806779 
L 565.118544 168.947167 
L 576.795664 173.333275 
L 588.311687 178.125422 
L 599.577658 183.477778 
" style="fill:none;stroke:#ffd700;stroke-linecap:square;stroke-width:2;"/>
   </g>
   <g id="line2d_61">
    <path clip-path="url(#p8f404a73e2)" d="M 599.577658 183.477778 
L 610.480547 189.5341 
L 620.977625 196.270655 
L 631.131217 203.515518 
L 641.025208 211.111702 
L 650.757934 218.913805 
" style="fill:none;stroke:#ffd700;stroke-linecap:square;stroke-width:2;"/>
   </g>
   <g id="line2d_62">
    <path clip-path="url(#p8f404a73e2)" d="M 591.732538 198.817374 
L 601.392065 206.710042 
L 611.051593 214.602709 
L 620.711121 222.495377 
L 630.370648 230.388044 
L 640.030176 238.280712 
" style="fill:none;stroke:#ffd700;stroke-linecap:square;stroke-width:2;"/>
   </g>
   <g id="line2d_63">
    <path clip-path="url(#p8f404a73e2)" d="M 540.635793 163.261007 
L 551.524399 169.342969 
L 561.955875 176.179365 
L 571.878039 183.735997 
L 581.241255 191.975062 
L 589.998685 200.855346 
" style="fill:none;stroke:#ffd700;stroke-linecap:square;stroke-width:2;"/>
   </g>
   <g id="line2d_64">
    <path clip-path="url(#p8f404a73e2)" d="M 589.998685 200.855346 
L 598.10652 210.332424 
L 605.596877 220.305608 
L 612.588101 230.635479 
L 619.213541 241.20414 
L 625.616051 251.90959 
" style="fill:none;stroke:#ffd700;stroke-linecap:square;stroke-width:2;"/>
   </g>
   <g id="line2d_65">
    <path clip-path="url(#p8f404a73e2)" d="M 536.525982 100.420573 
L 548.149689 95.893972 
L 559.773395 91.36737 
L 571.397102 86.840768 
L 583.020809 82.314167 
L 594.644515 77.787565 
" style="fill:none;stroke:#ffd700;stroke-linecap:square;stroke-width:2;"/>
   </g>
   <g id="line2d_66">
    <path clip-path="url(#p8f404a73e2)" d="M 594.644515 77.787565 
L 606.268222 73.260963 
L 617.891928 68.734362 
L 629.515635 64.20776 
L 641.139341 59.681159 
L 652.763048 55.154557 
" style="fill:none;stroke:#ffd700;stroke-linecap:square;stroke-width:2;"/>
   </g>
   <g id="line2d_67">
    <path clip-path="url(#p8f404a73e2)" d="M 536.525982 100.420573 
L 548.149689 95.893972 
L 559.741437 91.286352 
L 571.233818 86.436792 
L 582.548995 81.18796 
L 593.591918 75.389367 
" style="fill:none;stroke:#ffd700;stroke-linecap:square;stroke-width:2;"/>
   </g>
   <g id="line2d_68">
    <path clip-path="url(#p8f404a73e2)" d="M 593.591918 75.389367 
L 604.243897 68.90189 
L 614.463188 61.750952 
L 624.318941 54.105849 
L 633.901251 46.120087 
L 643.314191 37.935019 
" style="fill:none;stroke:#ffd700;stroke-linecap:square;stroke-width:2;"/>
   </g>
   <g id="line2d_69">
    <path clip-path="url(#p8f404a73e2)" d="M 536.525982 100.420573 
L 548.149689 95.893972 
L 559.804646 91.448664 
L 571.550029 87.248778 
L 583.434902 83.462851 
L 595.491025 80.26602 
" style="fill:none;stroke:#ffd700;stroke-linecap:square;stroke-width:2;"/>
   </g>
   <g id="line2d_70">
    <path clip-path="url(#p8f404a73e2)" d="M 595.491025 80.26602 
L 607.725054 77.841035 
L 620.089046 76.197401 
L 632.519444 75.163643 
L 644.978802 74.565753 
L 657.448185 74.229222 
" style="fill:none;stroke:#ffd700;stroke-linecap:square;stroke-width:2;"/>
   </g>
   <g id="line2d_71">
    <path clip-path="url(#p8f404a73e2)" d="M 478.40745 123.053581 
L 490.031156 118.52698 
L 501.622904 113.91936 
L 513.115285 109.0698 
L 524.430462 103.820968 
L 535.473385 98.022375 
" style="fill:none;stroke:#ffd700;stroke-linecap:square;stroke-width:2;"/>
   </g>
   <g id="line2d_72">
    <path clip-path="url(#p8f404a73e2)" d="M 535.473385 98.022375 
L 546.125364 91.534898 
L 556.344655 84.38396 
L 566.200408 76.738857 
L 575.782718 68.753095 
L 585.195659 60.568027 
" style="fill:none;stroke:#ffd700;stroke-linecap:square;stroke-width:2;"/>
   </g>
   <g id="line2d_73">
    <path clip-path="url(#p8f404a73e2)" d="M 585.195659 60.568027 
L 594.551279 52.317388 
L 603.906899 44.066749 
L 613.262519 35.816109 
L 622.618139 27.56547 
L 631.973759 19.31483 
" style="fill:none;stroke:#ffd700;stroke-linecap:square;stroke-width:2;"/>
   </g>
   <g id="line2d_74">
    <path clip-path="url(#p8f404a73e2)" d="M 535.473385 98.022375 
L 546.125364 91.534898 
L 556.292141 84.310727 
L 565.922859 76.386 
L 574.96934 67.800361 
L 583.386329 58.596759 
" style="fill:none;stroke:#ffd700;stroke-linecap:square;stroke-width:2;"/>
   </g>
   <g id="line2d_75">
    <path clip-path="url(#p8f404a73e2)" d="M 583.386329 58.596759 
L 591.131722 48.821233 
L 598.241402 38.573195 
L 604.838879 27.987508 
L 611.061842 17.176968 
L 617.056884 6.238126 
" style="fill:none;stroke:#ffd700;stroke-dasharray:7.4,3.2;stroke-dashoffset:0;stroke-width:2;"/>
   </g>
   <g id="line2d_76">
    <path clip-path="url(#p8f404a73e2)" d="M 478.40745 123.053581 
L 490.031156 118.52698 
L 501.686113 114.081672 
L 513.431496 109.881786 
L 525.316369 106.095859 
L 537.372492 102.899028 
" style="fill:none;stroke:#ffd700;stroke-linecap:square;stroke-width:2;"/>
   </g>
   <g id="line2d_77">
    <path clip-path="url(#p8f404a73e2)" d="M 537.372492 102.899028 
L 549.606521 100.474043 
L 561.970513 98.830409 
L 574.400911 97.796651 
L 586.860269 97.198761 
L 599.329653 96.86223 
" style="fill:none;stroke:#ffd700;stroke-linecap:square;stroke-width:2;"/>
   </g>
   <g id="line2d_78">
    <path clip-path="url(#p8f404a73e2)" d="M 599.329653 96.86223 
L 611.803653 96.61275 
L 624.277653 96.36327 
L 636.751653 96.11379 
L 649.225653 95.86431 
L 661.699653 95.61483 
" style="fill:none;stroke:#ffd700;stroke-linecap:square;stroke-width:2;"/>
   </g>
   <g id="line2d_79">
    <path clip-path="url(#p8f404a73e2)" d="M 537.372492 102.899028 
L 549.606521 100.474043 
L 561.981357 98.91987 
L 574.435095 98.244281 
L 586.905436 98.450658 
L 599.33 99.537968 
" style="fill:none;stroke:#ffd700;stroke-linecap:square;stroke-width:2;"/>
   </g>
   <g id="line2d_80">
    <path clip-path="url(#p8f404a73e2)" d="M 599.33 99.537968 
L 611.646631 101.500771 
L 623.814534 104.241571 
L 635.83348 107.577493 
L 647.728616 111.332332 
L 659.542627 115.335822 
" style="fill:none;stroke:#ffd700;stroke-linecap:square;stroke-width:2;"/>
   </g>
   <g id="line2d_81">
    <path clip-path="url(#p8f404a73e2)" d="M 527.021119 83.00877 
L 536.357298 74.736137 
L 545.693476 66.463505 
L 555.029655 58.190872 
L 564.365834 49.91824 
L 573.702012 41.645608 
" style="fill:none;stroke:#ffd700;stroke-linecap:square;stroke-width:2;"/>
   </g>
   <g id="line2d_82">
    <path clip-path="url(#p8f404a73e2)" d="M 477.387122 120.58002 
L 488.023804 114.067495 
L 498.173554 106.819419 
L 507.785596 98.872052 
L 516.811848 90.265148 
L 525.207156 81.041764 
" style="fill:none;stroke:#ffd700;stroke-linecap:square;stroke-width:2;"/>
   </g>
   <g id="line2d_83">
    <path clip-path="url(#p8f404a73e2)" d="M 525.207156 81.041764 
L 532.929524 71.248039 
L 540.015068 60.983299 
L 546.587616 50.382116 
L 552.785123 39.556961 
L 558.754407 28.604043 
" style="fill:none;stroke:#ffd700;stroke-linecap:square;stroke-width:2;"/>
   </g>
   <g id="line2d_84">
    <path clip-path="url(#p8f404a73e2)" d="M 597.140634 202.577588 
L 608.936059 206.635744 
L 620.731484 210.693901 
L 632.526908 214.752057 
L 644.322333 218.810214 
L 656.117757 222.86837 
" style="fill:none;stroke:#ffd700;stroke-linecap:square;stroke-width:2;"/>
   </g>
   <g id="line2d_85">
    <path clip-path="url(#p8f404a73e2)" d="M 538.163511 182.286805 
L 549.958936 186.344962 
L 561.782335 190.32064 
L 573.686274 194.047476 
L 585.713037 197.355106 
L 597.887355 200.067264 
" style="fill:none;stroke:#ffd700;stroke-linecap:square;stroke-width:2;"/>
   </g>
   <g id="line2d_86">
    <path clip-path="url(#p8f404a73e2)" d="M 597.887355 200.067264 
L 610.208572 202.001078 
L 622.628402 203.14897 
L 635.090196 203.684818 
L 647.563497 203.783988 
L 660.036364 203.621607 
" style="fill:none;stroke:#ffd700;stroke-linecap:square;stroke-width:2;"/>
   </g>
   <g id="line2d_87">
    <path clip-path="url(#p8f404a73e2)" d="M 538.163511 182.286805 
L 549.958936 186.344962 
L 561.725667 190.485349 
L 573.402787 194.871458 
L 584.91881 199.663605 
L 596.184781 205.01596 
" style="fill:none;stroke:#ffd700;stroke-linecap:square;stroke-width:2;"/>
   </g>
   <g id="line2d_88">
    <path clip-path="url(#p8f404a73e2)" d="M 596.184781 205.01596 
L 607.08767 211.072283 
L 617.584748 217.808838 
L 627.73834 225.0537 
L 637.632331 232.649884 
L 647.365057 240.451988 
" style="fill:none;stroke:#ffd700;stroke-linecap:square;stroke-width:2;"/>
   </g>
   <g id="line2d_89">
    <path clip-path="url(#p8f404a73e2)" d="M 601.059241 183.330825 
L 613.533241 183.081345 
L 626.007241 182.831865 
L 638.481241 182.582385 
L 650.955241 182.332905 
L 663.429241 182.083425 
" style="fill:none;stroke:#ffd700;stroke-linecap:square;stroke-width:2;"/>
   </g>
   <g id="line2d_90">
    <path clip-path="url(#p8f404a73e2)" d="M 538.910232 179.776482 
L 551.231449 181.710296 
L 563.658536 182.768365 
L 576.129329 182.945396 
L 588.581443 182.240503 
L 600.952587 180.657213 
" style="fill:none;stroke:#ffd700;stroke-linecap:square;stroke-width:2;"/>
   </g>
   <g id="line2d_91">
    <path clip-path="url(#p8f404a73e2)" d="M 600.952587 180.657213 
L 613.180875 178.203446 
L 625.229442 174.978253 
L 637.105373 171.164369 
L 648.840841 166.936856 
L 660.485305 162.464133 
" style="fill:none;stroke:#ffd700;stroke-linecap:square;stroke-width:2;"/>
   </g>
   <g id="line2d_92">
    <path clip-path="url(#p8f404a73e2)" d="M 588.387934 220.161205 
L 598.066008 228.03112 
L 607.744082 235.901035 
L 617.422156 243.770949 
L 627.10023 251.640864 
L 636.778304 259.510779 
" style="fill:none;stroke:#ffd700;stroke-linecap:square;stroke-width:2;"/>
   </g>
   <g id="line2d_93">
    <path clip-path="url(#p8f404a73e2)" d="M 537.207658 184.725178 
L 548.110547 190.7815 
L 558.558082 197.59333 
L 568.498 205.126591 
L 577.880579 213.3436 
L 586.658882 222.203251 
" style="fill:none;stroke:#ffd700;stroke-linecap:square;stroke-width:2;"/>
   </g>
   <g id="line2d_94">
    <path clip-path="url(#p8f404a73e2)" d="M 586.658882 222.203251 
L 594.788996 231.661224 
L 602.302801 241.616753 
L 609.318315 251.930144 
L 615.968607 262.483185 
L 622.39629 273.173539 
" style="fill:none;stroke:#ffd700;stroke-linecap:square;stroke-width:2;"/>
   </g>
   <g id="line2d_95">
    <path clip-path="url(#p8f404a73e2)" d="M 577.660176 239.528112 
L 587.319704 247.42078 
L 596.979231 255.313447 
L 606.638759 263.206115 
L 616.298287 271.098782 
L 625.957814 278.99145 
" style="fill:none;stroke:#ffd700;stroke-linecap:square;stroke-width:2;"/>
   </g>
   <g id="line2d_96">
    <path clip-path="url(#p8f404a73e2)" d="M 529.362538 200.064774 
L 539.022065 207.957442 
L 548.736405 215.782427 
L 558.612493 223.401872 
L 568.749007 230.670608 
L 579.230204 237.431847 
" style="fill:none;stroke:#ffd700;stroke-linecap:square;stroke-width:2;"/>
   </g>
   <g id="line2d_97">
    <path clip-path="url(#p8f404a73e2)" d="M 579.230204 237.431847 
L 590.118811 243.513809 
L 601.372156 248.892661 
L 612.87687 253.711895 
L 624.543635 258.12547 
L 636.300591 262.293536 
" style="fill:none;stroke:#ffd700;stroke-linecap:square;stroke-width:2;"/>
   </g>
   <g id="line2d_98">
    <path clip-path="url(#p8f404a73e2)" d="M 529.362538 200.064774 
L 539.022065 207.957442 
L 548.626193 215.917311 
L 558.061142 224.076649 
L 567.204323 232.561088 
L 575.918885 241.484441 
" style="fill:none;stroke:#ffd700;stroke-linecap:square;stroke-width:2;"/>
   </g>
   <g id="line2d_99">
    <path clip-path="url(#p8f404a73e2)" d="M 575.918885 241.484441 
L 584.048999 250.942414 
L 591.562805 260.897943 
L 598.578318 271.211334 
L 605.22861 281.764375 
L 611.656294 292.454729 
" style="fill:none;stroke:#ffd700;stroke-dasharray:7.4,3.2;stroke-dashoffset:0;stroke-width:2;"/>
   </g>
   <g id="line2d_100">
    <path clip-path="url(#p8f404a73e2)" d="M 563.246051 253.15699 
L 569.573697 263.906946 
L 575.901344 274.656903 
L 582.228991 285.406859 
L 586.463022 292.6 
" style="fill:none;stroke:#ffd700;stroke-dasharray:7.4,3.2;stroke-dashoffset:0;stroke-width:2;"/>
   </g>
   <g id="line2d_101">
    <path clip-path="url(#p8f404a73e2)" d="M 527.628685 202.102746 
L 535.73652 211.579824 
L 543.154201 221.60629 
L 549.844622 232.131986 
L 555.774315 243.104258 
L 560.913616 254.468219 
" style="fill:none;stroke:#ffd700;stroke-linecap:square;stroke-width:2;"/>
   </g>
   <g id="line2d_102">
    <path clip-path="url(#p8f404a73e2)" d="M 560.913616 254.468219 
L 565.236817 266.16702 
L 568.808924 278.117329 
L 571.789247 290.229353 
L 572.28524 292.6 
" style="fill:none;stroke:#ffd700;stroke-dasharray:7.4,3.2;stroke-dashoffset:0;stroke-width:2;"/>
   </g>
   <g id="line2d_103">
    <path clip-path="url(#p8f404a73e2)" d="M 668.475 138.7314 
L 680.949 138.48192 
L 693.423 138.23244 
L 705.897 137.98296 
L 718.371 137.73348 
L 730.845 137.484 
" style="fill:none;stroke:#ffd700;stroke-linecap:square;stroke-width:2;"/>
   </g>
   <g id="line2d_104">
    <path clip-path="url(#p8f404a73e2)" d="M 730.845 137.484 
L 743.319 137.23452 
L 755.793 136.98504 
L 768.267 136.73556 
L 780.741 136.48608 
L 793.215 136.2366 
" style="fill:none;stroke:#ffd700;stroke-linecap:square;stroke-width:2;"/>
   </g>
   <g id="line2d_105">
    <path clip-path="url(#p8f404a73e2)" d="M 730.845 137.484 
L 743.319 137.23452 
L 755.793 136.98504 
L 768.267 136.73556 
L 780.741 136.48608 
" style="fill:none;stroke:#008000;stroke-linecap:square;stroke-width:3;"/>
   </g>
   <g id="line2d_106">
    <path clip-path="url(#p8f404a73e2)" d="M 356.625 144.9684 
" style="fill:none;stroke:#008000;stroke-linecap:square;stroke-width:3;"/>
   </g>
   <g id="line2d_107">
    <path clip-path="url(#p8f404a73e2)" d="M 356.625 144.9684 
L 369.099 144.71892 
L 381.573 144.46944 
L 394.047 144.21996 
L 406.521 143.97048 
L 418.995 143.721 
" style="fill:none;stroke:#008000;stroke-linecap:square;stroke-width:3;"/>
   </g>
   <g id="line2d_108">
    <path clip-path="url(#p8f404a73e2)" d="M 418.995 143.721 
L 431.469 143.47152 
L 443.943 143.22204 
L 456.417 142.97256 
L 468.891 142.72308 
L 481.365 142.4736 
" style="fill:none;stroke:#008000;stroke-linecap:square;stroke-width:3;"/>
   </g>
   <g id="line2d_109">
    <path clip-path="url(#p8f404a73e2)" d="M 481.365 142.4736 
L 493.839 142.22412 
L 506.313 141.97464 
L 518.787 141.72516 
L 531.261 141.47568 
L 543.735 141.2262 
" style="fill:none;stroke:#008000;stroke-linecap:square;stroke-width:3;"/>
   </g>
   <g id="line2d_110">
    <path clip-path="url(#p8f404a73e2)" d="M 543.735 141.2262 
L 556.209 140.97672 
L 568.683 140.72724 
L 581.157 140.47776 
L 593.631 140.22828 
L 606.105 139.9788 
" style="fill:none;stroke:#008000;stroke-linecap:square;stroke-width:3;"/>
   </g>
   <g id="line2d_111">
    <path clip-path="url(#p8f404a73e2)" d="M 606.105 139.9788 
L 618.579 139.72932 
L 631.053 139.47984 
L 643.527 139.23036 
L 656.001 138.98088 
L 668.475 138.7314 
" style="fill:none;stroke:#008000;stroke-linecap:square;stroke-width:3;"/>
   </g>
   <g id="line2d_112">
    <path clip-path="url(#p8f404a73e2)" d="M 668.475 138.7314 
L 680.949 138.48192 
L 693.423 138.23244 
L 705.897 137.98296 
L 718.371 137.73348 
L 730.845 137.484 
" style="fill:none;stroke:#008000;stroke-linecap:square;stroke-width:3;"/>
   </g>
   <g id="line2d_113">
    <path clip-path="url(#p8f404a73e2)" d="M 730.845 137.484 
L 743.319 137.23452 
L 755.793 136.98504 
L 768.267 136.73556 
L 780.741 136.48608 
" style="fill:none;stroke:#008000;stroke-linecap:square;stroke-width:3;"/>
   </g>
   <g id="line2d_114">
    <path clip-path="url(#p8f404a73e2)" d="M 356.625 144.9684 
" style="fill:none;stroke:#ffd700;stroke-linecap:square;stroke-width:1.5;"/>
    <defs>
     <path d="M 0 4 
C 1.060812 4 2.078319 3.578535 2.828427 2.828427 
C 3.578535 2.078319 4 1.060812 4 0 
C 4 -1.060812 3.578535 -2.078319 2.828427 -2.828427 
C 2.078319 -3.578535 1.060812 -4 0 -4 
C -1.060812 -4 -2.078319 -3.578535 -2.828427 -2.828427 
C -3.578535 -2.078319 -4 -1.060812 -4 0 
C -4 1.060812 -3.578535 2.078319 -2.828427 2.828427 
C -2.078319 3.578535 -1.060812 4 0 4 
z
" id="m312ff87448" style="stroke:#ffd700;"/>
    </defs>
    <g clip-path="url(#p8f404a73e2)">
     <use style="fill:#ffd700;stroke:#ffd700;" x="356.625" xlink:href="#m312ff87448" y="144.9684"/>
    </g>
   </g>
   <g id="line2d_115">
    <path clip-path="url(#p8f404a73e2)" d="M 418.995 143.721 
" style="fill:none;stroke:#ffd700;stroke-linecap:square;stroke-width:1.5;"/>
    <g clip-path="url(#p8f404a73e2)">
     <use style="fill:#ffd700;stroke:#ffd700;" x="418.995" xlink:href="#m312ff87448" y="143.721"/>
    </g>
   </g>
   <g id="line2d_116">
    <path clip-path="url(#p8f404a73e2)" d="M 481.365 142.4736 
" style="fill:none;stroke:#ffd700;stroke-linecap:square;stroke-width:1.5;"/>
    <g clip-path="url(#p8f404a73e2)">
     <use style="fill:#ffd700;stroke:#ffd700;" x="481.365" xlink:href="#m312ff87448" y="142.4736"/>
    </g>
   </g>
   <g id="line2d_117">
    <path clip-path="url(#p8f404a73e2)" d="M 418.832085 141.106518 
" style="fill:none;stroke:#ffd700;stroke-linecap:square;stroke-width:1.5;"/>
    <g clip-path="url(#p8f404a73e2)">
     <use style="fill:#ffd700;stroke:#ffd700;" x="418.832085" xlink:href="#m312ff87448" y="141.106518"/>
    </g>
   </g>
   <g id="line2d_118">
    <path clip-path="url(#p8f404a73e2)" d="M 478.40745 123.053581 
" style="fill:none;stroke:#ffd700;stroke-linecap:square;stroke-width:1.5;"/>
    <g clip-path="url(#p8f404a73e2)">
     <use style="fill:#ffd700;stroke:#ffd700;" x="478.40745" xlink:href="#m312ff87448" y="123.053581"/>
    </g>
   </g>
   <g id="line2d_119">
    <path clip-path="url(#p8f404a73e2)" d="M 418.936752 146.339906 
" style="fill:none;stroke:#ffd700;stroke-linecap:square;stroke-width:1.5;"/>
    <g clip-path="url(#p8f404a73e2)">
     <use style="fill:#ffd700;stroke:#ffd700;" x="418.936752" xlink:href="#m312ff87448" y="146.339906"/>
    </g>
   </g>
   <g id="line2d_120">
    <path clip-path="url(#p8f404a73e2)" d="M 479.186388 161.996023 
" style="fill:none;stroke:#ffd700;stroke-linecap:square;stroke-width:1.5;"/>
    <g clip-path="url(#p8f404a73e2)">
     <use style="fill:#ffd700;stroke:#ffd700;" x="479.186388" xlink:href="#m312ff87448" y="161.996023"/>
    </g>
   </g>
   <g id="line2d_121">
    <path clip-path="url(#p8f404a73e2)" d="M 538.163511 182.286805 
" style="fill:none;stroke:#ffd700;stroke-linecap:square;stroke-width:1.5;"/>
    <g clip-path="url(#p8f404a73e2)">
     <use style="fill:#ffd700;stroke:#ffd700;" x="538.163511" xlink:href="#m312ff87448" y="182.286805"/>
    </g>
   </g>
   <g id="line2d_122">
    <path clip-path="url(#p8f404a73e2)" d="M 478.265793 164.508407 
" style="fill:none;stroke:#ffd700;stroke-linecap:square;stroke-width:1.5;"/>
    <g clip-path="url(#p8f404a73e2)">
     <use style="fill:#ffd700;stroke:#ffd700;" x="478.265793" xlink:href="#m312ff87448" y="164.508407"/>
    </g>
   </g>
   <g id="line2d_123">
    <path clip-path="url(#p8f404a73e2)" d="M 529.362538 200.064774 
" style="fill:none;stroke:#ffd700;stroke-linecap:square;stroke-width:1.5;"/>
    <g clip-path="url(#p8f404a73e2)">
     <use style="fill:#ffd700;stroke:#ffd700;" x="529.362538" xlink:href="#m312ff87448" y="200.064774"/>
    </g>
   </g>
   <g id="line2d_124">
    <path clip-path="url(#p8f404a73e2)" d="M 543.735 141.2262 
" style="fill:none;stroke:#ffd700;stroke-linecap:square;stroke-width:1.5;"/>
    <g clip-path="url(#p8f404a73e2)">
     <use style="fill:#ffd700;stroke:#ffd700;" x="543.735" xlink:href="#m312ff87448" y="141.2262"/>
    </g>
   </g>
   <g id="line2d_125">
    <path clip-path="url(#p8f404a73e2)" d="M 606.105 139.9788 
" style="fill:none;stroke:#ffd700;stroke-linecap:square;stroke-width:1.5;"/>
    <g clip-path="url(#p8f404a73e2)">
     <use style="fill:#ffd700;stroke:#ffd700;" x="606.105" xlink:href="#m312ff87448" y="139.9788"/>
    </g>
   </g>
   <g id="line2d_126">
    <path clip-path="url(#p8f404a73e2)" d="M 543.572085 138.611718 
" style="fill:none;stroke:#ffd700;stroke-linecap:square;stroke-width:1.5;"/>
    <g clip-path="url(#p8f404a73e2)">
     <use style="fill:#ffd700;stroke:#ffd700;" x="543.572085" xlink:href="#m312ff87448" y="138.611718"/>
    </g>
   </g>
   <g id="line2d_127">
    <path clip-path="url(#p8f404a73e2)" d="M 603.14745 120.558781 
" style="fill:none;stroke:#ffd700;stroke-linecap:square;stroke-width:1.5;"/>
    <g clip-path="url(#p8f404a73e2)">
     <use style="fill:#ffd700;stroke:#ffd700;" x="603.14745" xlink:href="#m312ff87448" y="120.558781"/>
    </g>
   </g>
   <g id="line2d_128">
    <path clip-path="url(#p8f404a73e2)" d="M 543.676752 143.845106 
" style="fill:none;stroke:#ffd700;stroke-linecap:square;stroke-width:1.5;"/>
    <g clip-path="url(#p8f404a73e2)">
     <use style="fill:#ffd700;stroke:#ffd700;" x="543.676752" xlink:href="#m312ff87448" y="143.845106"/>
    </g>
   </g>
   <g id="line2d_129">
    <path clip-path="url(#p8f404a73e2)" d="M 603.926388 159.501223 
" style="fill:none;stroke:#ffd700;stroke-linecap:square;stroke-width:1.5;"/>
    <g clip-path="url(#p8f404a73e2)">
     <use style="fill:#ffd700;stroke:#ffd700;" x="603.926388" xlink:href="#m312ff87448" y="159.501223"/>
    </g>
   </g>
   <g id="line2d_130">
    <path clip-path="url(#p8f404a73e2)" d="M 481.202085 139.859118 
" style="fill:none;stroke:#ffd700;stroke-linecap:square;stroke-width:1.5;"/>
    <g clip-path="url(#p8f404a73e2)">
     <use style="fill:#ffd700;stroke:#ffd700;" x="481.202085" xlink:href="#m312ff87448" y="139.859118"/>
    </g>
   </g>
   <g id="line2d_131">
    <path clip-path="url(#p8f404a73e2)" d="M 540.77745 121.806181 
" style="fill:none;stroke:#ffd700;stroke-linecap:square;stroke-width:1.5;"/>
    <g clip-path="url(#p8f404a73e2)">
     <use style="fill:#ffd700;stroke:#ffd700;" x="540.77745" xlink:href="#m312ff87448" y="121.806181"/>
    </g>
   </g>
   <g id="line2d_132">
    <path clip-path="url(#p8f404a73e2)" d="M 598.895982 99.173173 
" style="fill:none;stroke:#ffd700;stroke-linecap:square;stroke-width:1.5;"/>
    <g clip-path="url(#p8f404a73e2)">
     <use style="fill:#ffd700;stroke:#ffd700;" x="598.895982" xlink:href="#m312ff87448" y="99.173173"/>
    </g>
   </g>
   <g id="line2d_133">
    <path clip-path="url(#p8f404a73e2)" d="M 539.757122 119.33262 
" style="fill:none;stroke:#ffd700;stroke-linecap:square;stroke-width:1.5;"/>
    <g clip-path="url(#p8f404a73e2)">
     <use style="fill:#ffd700;stroke:#ffd700;" x="539.757122" xlink:href="#m312ff87448" y="119.33262"/>
    </g>
   </g>
   <g id="line2d_134">
    <path clip-path="url(#p8f404a73e2)" d="M 589.391119 81.76137 
" style="fill:none;stroke:#ffd700;stroke-linecap:square;stroke-width:1.5;"/>
    <g clip-path="url(#p8f404a73e2)">
     <use style="fill:#ffd700;stroke:#ffd700;" x="589.391119" xlink:href="#m312ff87448" y="81.76137"/>
    </g>
   </g>
   <g id="line2d_135">
    <path clip-path="url(#p8f404a73e2)" d="M 481.306752 145.092506 
" style="fill:none;stroke:#ffd700;stroke-linecap:square;stroke-width:1.5;"/>
    <g clip-path="url(#p8f404a73e2)">
     <use style="fill:#ffd700;stroke:#ffd700;" x="481.306752" xlink:href="#m312ff87448" y="145.092506"/>
    </g>
   </g>
   <g id="line2d_136">
    <path clip-path="url(#p8f404a73e2)" d="M 541.556388 160.748623 
" style="fill:none;stroke:#ffd700;stroke-linecap:square;stroke-width:1.5;"/>
    <g clip-path="url(#p8f404a73e2)">
     <use style="fill:#ffd700;stroke:#ffd700;" x="541.556388" xlink:href="#m312ff87448" y="160.748623"/>
    </g>
   </g>
   <g id="line2d_137">
    <path clip-path="url(#p8f404a73e2)" d="M 600.533511 181.039405 
" style="fill:none;stroke:#ffd700;stroke-linecap:square;stroke-width:1.5;"/>
    <g clip-path="url(#p8f404a73e2)">
     <use style="fill:#ffd700;stroke:#ffd700;" x="600.533511" xlink:href="#m312ff87448" y="181.039405"/>
    </g>
   </g>
   <g id="line2d_138">
    <path clip-path="url(#p8f404a73e2)" d="M 540.635793 163.261007 
" style="fill:none;stroke:#ffd700;stroke-linecap:square;stroke-width:1.5;"/>
    <g clip-path="url(#p8f404a73e2)">
     <use style="fill:#ffd700;stroke:#ffd700;" x="540.635793" xlink:href="#m312ff87448" y="163.261007"/>
    </g>
   </g>
   <g id="line2d_139">
    <path clip-path="url(#p8f404a73e2)" d="M 591.732538 198.817374 
" style="fill:none;stroke:#ffd700;stroke-linecap:square;stroke-width:1.5;"/>
    <g clip-path="url(#p8f404a73e2)">
     <use style="fill:#ffd700;stroke:#ffd700;" x="591.732538" xlink:href="#m312ff87448" y="198.817374"/>
    </g>
   </g>
   <g id="line2d_140">
    <path clip-path="url(#p8f404a73e2)" d="M 536.525982 100.420573 
" style="fill:none;stroke:#ffd700;stroke-linecap:square;stroke-width:1.5;"/>
    <g clip-path="url(#p8f404a73e2)">
     <use style="fill:#ffd700;stroke:#ffd700;" x="536.525982" xlink:href="#m312ff87448" y="100.420573"/>
    </g>
   </g>
   <g id="line2d_141">
    <path clip-path="url(#p8f404a73e2)" d="M 477.387122 120.58002 
" style="fill:none;stroke:#ffd700;stroke-linecap:square;stroke-width:1.5;"/>
    <g clip-path="url(#p8f404a73e2)">
     <use style="fill:#ffd700;stroke:#ffd700;" x="477.387122" xlink:href="#m312ff87448" y="120.58002"/>
    </g>
   </g>
   <g id="line2d_142">
    <path clip-path="url(#p8f404a73e2)" d="M 527.021119 83.00877 
" style="fill:none;stroke:#ffd700;stroke-linecap:square;stroke-width:1.5;"/>
    <g clip-path="url(#p8f404a73e2)">
     <use style="fill:#ffd700;stroke:#ffd700;" x="527.021119" xlink:href="#m312ff87448" y="83.00877"/>
    </g>
   </g>
   <g id="line2d_143">
    <path clip-path="url(#p8f404a73e2)" d="M 597.140634 202.577588 
" style="fill:none;stroke:#ffd700;stroke-linecap:square;stroke-width:1.5;"/>
    <g clip-path="url(#p8f404a73e2)">
     <use style="fill:#ffd700;stroke:#ffd700;" x="597.140634" xlink:href="#m312ff87448" y="202.577588"/>
    </g>
   </g>
   <g id="line2d_144">
    <path clip-path="url(#p8f404a73e2)" d="M 538.910232 179.776482 
" style="fill:none;stroke:#ffd700;stroke-linecap:square;stroke-width:1.5;"/>
    <g clip-path="url(#p8f404a73e2)">
     <use style="fill:#ffd700;stroke:#ffd700;" x="538.910232" xlink:href="#m312ff87448" y="179.776482"/>
    </g>
   </g>
   <g id="line2d_145">
    <path clip-path="url(#p8f404a73e2)" d="M 601.059241 183.330825 
" style="fill:none;stroke:#ffd700;stroke-linecap:square;stroke-width:1.5;"/>
    <g clip-path="url(#p8f404a73e2)">
     <use style="fill:#ffd700;stroke:#ffd700;" x="601.059241" xlink:href="#m312ff87448" y="183.330825"/>
    </g>
   </g>
   <g id="line2d_146">
    <path clip-path="url(#p8f404a73e2)" d="M 537.207658 184.725178 
" style="fill:none;stroke:#ffd700;stroke-linecap:square;stroke-width:1.5;"/>
    <g clip-path="url(#p8f404a73e2)">
     <use style="fill:#ffd700;stroke:#ffd700;" x="537.207658" xlink:href="#m312ff87448" y="184.725178"/>
    </g>
   </g>
   <g id="line2d_147">
    <path clip-path="url(#p8f404a73e2)" d="M 588.387934 220.161205 
" style="fill:none;stroke:#ffd700;stroke-linecap:square;stroke-width:1.5;"/>
    <g clip-path="url(#p8f404a73e2)">
     <use style="fill:#ffd700;stroke:#ffd700;" x="588.387934" xlink:href="#m312ff87448" y="220.161205"/>
    </g>
   </g>
   <g id="line2d_148">
    <path clip-path="url(#p8f404a73e2)" d="M 577.660176 239.528112 
" style="fill:none;stroke:#ffd700;stroke-linecap:square;stroke-width:1.5;"/>
    <g clip-path="url(#p8f404a73e2)">
     <use style="fill:#ffd700;stroke:#ffd700;" x="577.660176" xlink:href="#m312ff87448" y="239.528112"/>
    </g>
   </g>
   <g id="line2d_149">
    <path clip-path="url(#p8f404a73e2)" d="M 527.628685 202.102746 
" style="fill:none;stroke:#ffd700;stroke-linecap:square;stroke-width:1.5;"/>
    <g clip-path="url(#p8f404a73e2)">
     <use style="fill:#ffd700;stroke:#ffd700;" x="527.628685" xlink:href="#m312ff87448" y="202.102746"/>
    </g>
   </g>
   <g id="line2d_150">
    <path clip-path="url(#p8f404a73e2)" d="M 563.246051 253.15699 
" style="fill:none;stroke:#ffd700;stroke-linecap:square;stroke-width:1.5;"/>
    <g clip-path="url(#p8f404a73e2)">
     <use style="fill:#ffd700;stroke:#ffd700;" x="563.246051" xlink:href="#m312ff87448" y="253.15699"/>
    </g>
   </g>
   <g id="line2d_151">
    <path clip-path="url(#p8f404a73e2)" d="M 668.475 138.7314 
" style="fill:none;stroke:#ffd700;stroke-linecap:square;stroke-width:1.5;"/>
    <g clip-path="url(#p8f404a73e2)">
     <use style="fill:#ffd700;stroke:#ffd700;" x="668.475" xlink:href="#m312ff87448" y="138.7314"/>
    </g>
   </g>
   <g id="line2d_152">
    <path clip-path="url(#p8f404a73e2)" d="M 605.942085 137.364318 
" style="fill:none;stroke:#ffd700;stroke-linecap:square;stroke-width:1.5;"/>
    <g clip-path="url(#p8f404a73e2)">
     <use style="fill:#ffd700;stroke:#ffd700;" x="605.942085" xlink:href="#m312ff87448" y="137.364318"/>
    </g>
   </g>
   <g id="line2d_153">
    <path clip-path="url(#p8f404a73e2)" d="M 665.51745 119.311381 
" style="fill:none;stroke:#ffd700;stroke-linecap:square;stroke-width:1.5;"/>
    <g clip-path="url(#p8f404a73e2)">
     <use style="fill:#ffd700;stroke:#ffd700;" x="665.51745" xlink:href="#m312ff87448" y="119.311381"/>
    </g>
   </g>
   <g id="line2d_154">
    <path clip-path="url(#p8f404a73e2)" d="M 606.046752 142.597706 
" style="fill:none;stroke:#ffd700;stroke-linecap:square;stroke-width:1.5;"/>
    <g clip-path="url(#p8f404a73e2)">
     <use style="fill:#ffd700;stroke:#ffd700;" x="606.046752" xlink:href="#m312ff87448" y="142.597706"/>
    </g>
   </g>
   <g id="line2d_155">
    <path clip-path="url(#p8f404a73e2)" d="M 666.296388 158.253823 
" style="fill:none;stroke:#ffd700;stroke-linecap:square;stroke-width:1.5;"/>
    <g clip-path="url(#p8f404a73e2)">
     <use style="fill:#ffd700;stroke:#ffd700;" x="666.296388" xlink:href="#m312ff87448" y="158.253823"/>
    </g>
   </g>
   <g id="line2d_156">
    <path clip-path="url(#p8f404a73e2)" d="M 661.265982 97.925773 
" style="fill:none;stroke:#ffd700;stroke-linecap:square;stroke-width:1.5;"/>
    <g clip-path="url(#p8f404a73e2)">
     <use style="fill:#ffd700;stroke:#ffd700;" x="661.265982" xlink:href="#m312ff87448" y="97.925773"/>
    </g>
   </g>
   <g id="line2d_157">
    <path clip-path="url(#p8f404a73e2)" d="M 602.127122 118.08522 
" style="fill:none;stroke:#ffd700;stroke-linecap:square;stroke-width:1.5;"/>
    <g clip-path="url(#p8f404a73e2)">
     <use style="fill:#ffd700;stroke:#ffd700;" x="602.127122" xlink:href="#m312ff87448" y="118.08522"/>
    </g>
   </g>
   <g id="line2d_158">
    <path clip-path="url(#p8f404a73e2)" d="M 651.761119 80.51397 
" style="fill:none;stroke:#ffd700;stroke-linecap:square;stroke-width:1.5;"/>
    <g clip-path="url(#p8f404a73e2)">
     <use style="fill:#ffd700;stroke:#ffd700;" x="651.761119" xlink:href="#m312ff87448" y="80.51397"/>
    </g>
   </g>
   <g id="line2d_159">
    <path clip-path="url(#p8f404a73e2)" d="M 662.903511 179.792005 
" style="fill:none;stroke:#ffd700;stroke-linecap:square;stroke-width:1.5;"/>
    <g clip-path="url(#p8f404a73e2)">
     <use style="fill:#ffd700;stroke:#ffd700;" x="662.903511" xlink:href="#m312ff87448" y="179.792005"/>
    </g>
   </g>
   <g id="line2d_160">
    <path clip-path="url(#p8f404a73e2)" d="M 603.005793 162.013607 
" style="fill:none;stroke:#ffd700;stroke-linecap:square;stroke-width:1.5;"/>
    <g clip-path="url(#p8f404a73e2)">
     <use style="fill:#ffd700;stroke:#ffd700;" x="603.005793" xlink:href="#m312ff87448" y="162.013607"/>
    </g>
   </g>
   <g id="line2d_161">
    <path clip-path="url(#p8f404a73e2)" d="M 654.102538 197.569974 
" style="fill:none;stroke:#ffd700;stroke-linecap:square;stroke-width:1.5;"/>
    <g clip-path="url(#p8f404a73e2)">
     <use style="fill:#ffd700;stroke:#ffd700;" x="654.102538" xlink:href="#m312ff87448" y="197.569974"/>
    </g>
   </g>
   <g id="line2d_162">
    <path clip-path="url(#p8f404a73e2)" d="M 657.014515 76.540165 
" style="fill:none;stroke:#ffd700;stroke-linecap:square;stroke-width:1.5;"/>
    <g clip-path="url(#p8f404a73e2)">
     <use style="fill:#ffd700;stroke:#ffd700;" x="657.014515" xlink:href="#m312ff87448" y="76.540165"/>
    </g>
   </g>
   <g id="line2d_163">
    <path clip-path="url(#p8f404a73e2)" d="M 597.843385 96.774975 
" style="fill:none;stroke:#ffd700;stroke-linecap:square;stroke-width:1.5;"/>
    <g clip-path="url(#p8f404a73e2)">
     <use style="fill:#ffd700;stroke:#ffd700;" x="597.843385" xlink:href="#m312ff87448" y="96.774975"/>
    </g>
   </g>
   <g id="line2d_164">
    <path clip-path="url(#p8f404a73e2)" d="M 647.565659 59.320627 
" style="fill:none;stroke:#ffd700;stroke-linecap:square;stroke-width:1.5;"/>
    <g clip-path="url(#p8f404a73e2)">
     <use style="fill:#ffd700;stroke:#ffd700;" x="647.565659" xlink:href="#m312ff87448" y="59.320627"/>
    </g>
   </g>
   <g id="line2d_165">
    <path clip-path="url(#p8f404a73e2)" d="M 599.742492 101.651628 
" style="fill:none;stroke:#ffd700;stroke-linecap:square;stroke-width:1.5;"/>
    <g clip-path="url(#p8f404a73e2)">
     <use style="fill:#ffd700;stroke:#ffd700;" x="599.742492" xlink:href="#m312ff87448" y="101.651628"/>
    </g>
   </g>
   <g id="line2d_166">
    <path clip-path="url(#p8f404a73e2)" d="M 661.699653 95.61483 
" style="fill:none;stroke:#ffd700;stroke-linecap:square;stroke-width:1.5;"/>
    <g clip-path="url(#p8f404a73e2)">
     <use style="fill:#ffd700;stroke:#ffd700;" x="661.699653" xlink:href="#m312ff87448" y="95.61483"/>
    </g>
   </g>
   <g id="line2d_167">
    <path clip-path="url(#p8f404a73e2)" d="M 636.072012 40.398208 
" style="fill:none;stroke:#ffd700;stroke-linecap:square;stroke-width:1.5;"/>
    <g clip-path="url(#p8f404a73e2)">
     <use style="fill:#ffd700;stroke:#ffd700;" x="636.072012" xlink:href="#m312ff87448" y="40.398208"/>
    </g>
   </g>
   <g id="line2d_168">
    <path clip-path="url(#p8f404a73e2)" d="M 587.577156 79.794364 
" style="fill:none;stroke:#ffd700;stroke-linecap:square;stroke-width:1.5;"/>
    <g clip-path="url(#p8f404a73e2)">
     <use style="fill:#ffd700;stroke:#ffd700;" x="587.577156" xlink:href="#m312ff87448" y="79.794364"/>
    </g>
   </g>
   <g id="line2d_169">
    <path clip-path="url(#p8f404a73e2)" d="M 621.124407 27.356643 
" style="fill:none;stroke:#ffd700;stroke-linecap:square;stroke-width:1.5;"/>
    <g clip-path="url(#p8f404a73e2)">
     <use style="fill:#ffd700;stroke:#ffd700;" x="621.124407" xlink:href="#m312ff87448" y="27.356643"/>
    </g>
   </g>
   <g id="line2d_170">
    <path clip-path="url(#p8f404a73e2)" d="M 659.510634 201.330188 
" style="fill:none;stroke:#ffd700;stroke-linecap:square;stroke-width:1.5;"/>
    <g clip-path="url(#p8f404a73e2)">
     <use style="fill:#ffd700;stroke:#ffd700;" x="659.510634" xlink:href="#m312ff87448" y="201.330188"/>
    </g>
   </g>
   <g id="line2d_171">
    <path clip-path="url(#p8f404a73e2)" d="M 601.280232 178.529082 
" style="fill:none;stroke:#ffd700;stroke-linecap:square;stroke-width:1.5;"/>
    <g clip-path="url(#p8f404a73e2)">
     <use style="fill:#ffd700;stroke:#ffd700;" x="601.280232" xlink:href="#m312ff87448" y="178.529082"/>
    </g>
   </g>
   <g id="line2d_172">
    <path clip-path="url(#p8f404a73e2)" d="M 663.429241 182.083425 
" style="fill:none;stroke:#ffd700;stroke-linecap:square;stroke-width:1.5;"/>
    <g clip-path="url(#p8f404a73e2)">
     <use style="fill:#ffd700;stroke:#ffd700;" x="663.429241" xlink:href="#m312ff87448" y="182.083425"/>
    </g>
   </g>
   <g id="line2d_173">
    <path clip-path="url(#p8f404a73e2)" d="M 599.577658 183.477778 
" style="fill:none;stroke:#ffd700;stroke-linecap:square;stroke-width:1.5;"/>
    <g clip-path="url(#p8f404a73e2)">
     <use style="fill:#ffd700;stroke:#ffd700;" x="599.577658" xlink:href="#m312ff87448" y="183.477778"/>
    </g>
   </g>
   <g id="line2d_174">
    <path clip-path="url(#p8f404a73e2)" d="M 650.757934 218.913805 
" style="fill:none;stroke:#ffd700;stroke-linecap:square;stroke-width:1.5;"/>
    <g clip-path="url(#p8f404a73e2)">
     <use style="fill:#ffd700;stroke:#ffd700;" x="650.757934" xlink:href="#m312ff87448" y="218.913805"/>
    </g>
   </g>
   <g id="line2d_175">
    <path clip-path="url(#p8f404a73e2)" d="M 640.030176 238.280712 
" style="fill:none;stroke:#ffd700;stroke-linecap:square;stroke-width:1.5;"/>
    <g clip-path="url(#p8f404a73e2)">
     <use style="fill:#ffd700;stroke:#ffd700;" x="640.030176" xlink:href="#m312ff87448" y="238.280712"/>
    </g>
   </g>
   <g id="line2d_176">
    <path clip-path="url(#p8f404a73e2)" d="M 589.998685 200.855346 
" style="fill:none;stroke:#ffd700;stroke-linecap:square;stroke-width:1.5;"/>
    <g clip-path="url(#p8f404a73e2)">
     <use style="fill:#ffd700;stroke:#ffd700;" x="589.998685" xlink:href="#m312ff87448" y="200.855346"/>
    </g>
   </g>
   <g id="line2d_177">
    <path clip-path="url(#p8f404a73e2)" d="M 625.616051 251.90959 
" style="fill:none;stroke:#ffd700;stroke-linecap:square;stroke-width:1.5;"/>
    <g clip-path="url(#p8f404a73e2)">
     <use style="fill:#ffd700;stroke:#ffd700;" x="625.616051" xlink:href="#m312ff87448" y="251.90959"/>
    </g>
   </g>
   <g id="line2d_178">
    <path clip-path="url(#p8f404a73e2)" d="M 594.644515 77.787565 
" style="fill:none;stroke:#ffd700;stroke-linecap:square;stroke-width:1.5;"/>
    <g clip-path="url(#p8f404a73e2)">
     <use style="fill:#ffd700;stroke:#ffd700;" x="594.644515" xlink:href="#m312ff87448" y="77.787565"/>
    </g>
   </g>
   <g id="line2d_179">
    <path clip-path="url(#p8f404a73e2)" d="M 652.763048 55.154557 
" style="fill:none;stroke:#ffd700;stroke-linecap:square;stroke-width:1.5;"/>
    <g clip-path="url(#p8f404a73e2)">
     <use style="fill:#ffd700;stroke:#ffd700;" x="652.763048" xlink:href="#m312ff87448" y="55.154557"/>
    </g>
   </g>
   <g id="line2d_180">
    <path clip-path="url(#p8f404a73e2)" d="M 593.591918 75.389367 
" style="fill:none;stroke:#ffd700;stroke-linecap:square;stroke-width:1.5;"/>
    <g clip-path="url(#p8f404a73e2)">
     <use style="fill:#ffd700;stroke:#ffd700;" x="593.591918" xlink:href="#m312ff87448" y="75.389367"/>
    </g>
   </g>
   <g id="line2d_181">
    <path clip-path="url(#p8f404a73e2)" d="M 643.314191 37.935019 
" style="fill:none;stroke:#ffd700;stroke-linecap:square;stroke-width:1.5;"/>
    <g clip-path="url(#p8f404a73e2)">
     <use style="fill:#ffd700;stroke:#ffd700;" x="643.314191" xlink:href="#m312ff87448" y="37.935019"/>
    </g>
   </g>
   <g id="line2d_182">
    <path clip-path="url(#p8f404a73e2)" d="M 595.491025 80.26602 
" style="fill:none;stroke:#ffd700;stroke-linecap:square;stroke-width:1.5;"/>
    <g clip-path="url(#p8f404a73e2)">
     <use style="fill:#ffd700;stroke:#ffd700;" x="595.491025" xlink:href="#m312ff87448" y="80.26602"/>
    </g>
   </g>
   <g id="line2d_183">
    <path clip-path="url(#p8f404a73e2)" d="M 657.448185 74.229222 
" style="fill:none;stroke:#ffd700;stroke-linecap:square;stroke-width:1.5;"/>
    <g clip-path="url(#p8f404a73e2)">
     <use style="fill:#ffd700;stroke:#ffd700;" x="657.448185" xlink:href="#m312ff87448" y="74.229222"/>
    </g>
   </g>
   <g id="line2d_184">
    <path clip-path="url(#p8f404a73e2)" d="M 535.473385 98.022375 
" style="fill:none;stroke:#ffd700;stroke-linecap:square;stroke-width:1.5;"/>
    <g clip-path="url(#p8f404a73e2)">
     <use style="fill:#ffd700;stroke:#ffd700;" x="535.473385" xlink:href="#m312ff87448" y="98.022375"/>
    </g>
   </g>
   <g id="line2d_185">
    <path clip-path="url(#p8f404a73e2)" d="M 585.195659 60.568027 
" style="fill:none;stroke:#ffd700;stroke-linecap:square;stroke-width:1.5;"/>
    <g clip-path="url(#p8f404a73e2)">
     <use style="fill:#ffd700;stroke:#ffd700;" x="585.195659" xlink:href="#m312ff87448" y="60.568027"/>
    </g>
   </g>
   <g id="line2d_186">
    <path clip-path="url(#p8f404a73e2)" d="M 631.973759 19.31483 
" style="fill:none;stroke:#ffd700;stroke-linecap:square;stroke-width:1.5;"/>
    <g clip-path="url(#p8f404a73e2)">
     <use style="fill:#ffd700;stroke:#ffd700;" x="631.973759" xlink:href="#m312ff87448" y="19.31483"/>
    </g>
   </g>
   <g id="line2d_187">
    <path clip-path="url(#p8f404a73e2)" d="M 583.386329 58.596759 
" style="fill:none;stroke:#ffd700;stroke-linecap:square;stroke-width:1.5;"/>
    <g clip-path="url(#p8f404a73e2)">
     <use style="fill:#ffd700;stroke:#ffd700;" x="583.386329" xlink:href="#m312ff87448" y="58.596759"/>
    </g>
   </g>
   <g id="line2d_188">
    <path clip-path="url(#p8f404a73e2)" d="M 617.056884 6.238126 
" style="fill:none;stroke:#ffd700;stroke-linecap:square;stroke-width:1.5;"/>
    <g clip-path="url(#p8f404a73e2)">
     <use style="fill:#ffd700;stroke:#ffd700;" x="617.056884" xlink:href="#m312ff87448" y="6.238126"/>
    </g>
   </g>
   <g id="line2d_189">
    <path clip-path="url(#p8f404a73e2)" d="M 537.372492 102.899028 
" style="fill:none;stroke:#ffd700;stroke-linecap:square;stroke-width:1.5;"/>
    <g clip-path="url(#p8f404a73e2)">
     <use style="fill:#ffd700;stroke:#ffd700;" x="537.372492" xlink:href="#m312ff87448" y="102.899028"/>
    </g>
   </g>
   <g id="line2d_190">
    <path clip-path="url(#p8f404a73e2)" d="M 599.329653 96.86223 
" style="fill:none;stroke:#ffd700;stroke-linecap:square;stroke-width:1.5;"/>
    <g clip-path="url(#p8f404a73e2)">
     <use style="fill:#ffd700;stroke:#ffd700;" x="599.329653" xlink:href="#m312ff87448" y="96.86223"/>
    </g>
   </g>
   <g id="line2d_191">
    <path clip-path="url(#p8f404a73e2)" d="M 661.699653 95.61483 
" style="fill:none;stroke:#ffd700;stroke-linecap:square;stroke-width:1.5;"/>
    <g clip-path="url(#p8f404a73e2)">
     <use style="fill:#ffd700;stroke:#ffd700;" x="661.699653" xlink:href="#m312ff87448" y="95.61483"/>
    </g>
   </g>
   <g id="line2d_192">
    <path clip-path="url(#p8f404a73e2)" d="M 599.33 99.537968 
" style="fill:none;stroke:#ffd700;stroke-linecap:square;stroke-width:1.5;"/>
    <g clip-path="url(#p8f404a73e2)">
     <use style="fill:#ffd700;stroke:#ffd700;" x="599.33" xlink:href="#m312ff87448" y="99.537968"/>
    </g>
   </g>
   <g id="line2d_193">
    <path clip-path="url(#p8f404a73e2)" d="M 659.542627 115.335822 
" style="fill:none;stroke:#ffd700;stroke-linecap:square;stroke-width:1.5;"/>
    <g clip-path="url(#p8f404a73e2)">
     <use style="fill:#ffd700;stroke:#ffd700;" x="659.542627" xlink:href="#m312ff87448" y="115.335822"/>
    </g>
   </g>
   <g id="line2d_194">
    <path clip-path="url(#p8f404a73e2)" d="M 573.702012 41.645608 
" style="fill:none;stroke:#ffd700;stroke-linecap:square;stroke-width:1.5;"/>
    <g clip-path="url(#p8f404a73e2)">
     <use style="fill:#ffd700;stroke:#ffd700;" x="573.702012" xlink:href="#m312ff87448" y="41.645608"/>
    </g>
   </g>
   <g id="line2d_195">
    <path clip-path="url(#p8f404a73e2)" d="M 525.207156 81.041764 
" style="fill:none;stroke:#ffd700;stroke-linecap:square;stroke-width:1.5;"/>
    <g clip-path="url(#p8f404a73e2)">
     <use style="fill:#ffd700;stroke:#ffd700;" x="525.207156" xlink:href="#m312ff87448" y="81.041764"/>
    </g>
   </g>
   <g id="line2d_196">
    <path clip-path="url(#p8f404a73e2)" d="M 558.754407 28.604043 
" style="fill:none;stroke:#ffd700;stroke-linecap:square;stroke-width:1.5;"/>
    <g clip-path="url(#p8f404a73e2)">
     <use style="fill:#ffd700;stroke:#ffd700;" x="558.754407" xlink:href="#m312ff87448" y="28.604043"/>
    </g>
   </g>
   <g id="line2d_197">
    <path clip-path="url(#p8f404a73e2)" d="M 656.117757 222.86837 
" style="fill:none;stroke:#ffd700;stroke-linecap:square;stroke-width:1.5;"/>
    <g clip-path="url(#p8f404a73e2)">
     <use style="fill:#ffd700;stroke:#ffd700;" x="656.117757" xlink:href="#m312ff87448" y="222.86837"/>
    </g>
   </g>
   <g id="line2d_198">
    <path clip-path="url(#p8f404a73e2)" d="M 597.887355 200.067264 
" style="fill:none;stroke:#ffd700;stroke-linecap:square;stroke-width:1.5;"/>
    <g clip-path="url(#p8f404a73e2)">
     <use style="fill:#ffd700;stroke:#ffd700;" x="597.887355" xlink:href="#m312ff87448" y="200.067264"/>
    </g>
   </g>
   <g id="line2d_199">
    <path clip-path="url(#p8f404a73e2)" d="M 660.036364 203.621607 
" style="fill:none;stroke:#ffd700;stroke-linecap:square;stroke-width:1.5;"/>
    <g clip-path="url(#p8f404a73e2)">
     <use style="fill:#ffd700;stroke:#ffd700;" x="660.036364" xlink:href="#m312ff87448" y="203.621607"/>
    </g>
   </g>
   <g id="line2d_200">
    <path clip-path="url(#p8f404a73e2)" d="M 596.184781 205.01596 
" style="fill:none;stroke:#ffd700;stroke-linecap:square;stroke-width:1.5;"/>
    <g clip-path="url(#p8f404a73e2)">
     <use style="fill:#ffd700;stroke:#ffd700;" x="596.184781" xlink:href="#m312ff87448" y="205.01596"/>
    </g>
   </g>
   <g id="line2d_201">
    <path clip-path="url(#p8f404a73e2)" d="M 647.365057 240.451988 
" style="fill:none;stroke:#ffd700;stroke-linecap:square;stroke-width:1.5;"/>
    <g clip-path="url(#p8f404a73e2)">
     <use style="fill:#ffd700;stroke:#ffd700;" x="647.365057" xlink:href="#m312ff87448" y="240.451988"/>
    </g>
   </g>
   <g id="line2d_202">
    <path clip-path="url(#p8f404a73e2)" d="M 663.429241 182.083425 
" style="fill:none;stroke:#ffd700;stroke-linecap:square;stroke-width:1.5;"/>
    <g clip-path="url(#p8f404a73e2)">
     <use style="fill:#ffd700;stroke:#ffd700;" x="663.429241" xlink:href="#m312ff87448" y="182.083425"/>
    </g>
   </g>
   <g id="line2d_203">
    <path clip-path="url(#p8f404a73e2)" d="M 600.952587 180.657213 
" style="fill:none;stroke:#ffd700;stroke-linecap:square;stroke-width:1.5;"/>
    <g clip-path="url(#p8f404a73e2)">
     <use style="fill:#ffd700;stroke:#ffd700;" x="600.952587" xlink:href="#m312ff87448" y="180.657213"/>
    </g>
   </g>
   <g id="line2d_204">
    <path clip-path="url(#p8f404a73e2)" d="M 660.485305 162.464133 
" style="fill:none;stroke:#ffd700;stroke-linecap:square;stroke-width:1.5;"/>
    <g clip-path="url(#p8f404a73e2)">
     <use style="fill:#ffd700;stroke:#ffd700;" x="660.485305" xlink:href="#m312ff87448" y="162.464133"/>
    </g>
   </g>
   <g id="line2d_205">
    <path clip-path="url(#p8f404a73e2)" d="M 636.778304 259.510779 
" style="fill:none;stroke:#ffd700;stroke-linecap:square;stroke-width:1.5;"/>
    <g clip-path="url(#p8f404a73e2)">
     <use style="fill:#ffd700;stroke:#ffd700;" x="636.778304" xlink:href="#m312ff87448" y="259.510779"/>
    </g>
   </g>
   <g id="line2d_206">
    <path clip-path="url(#p8f404a73e2)" d="M 586.658882 222.203251 
" style="fill:none;stroke:#ffd700;stroke-linecap:square;stroke-width:1.5;"/>
    <g clip-path="url(#p8f404a73e2)">
     <use style="fill:#ffd700;stroke:#ffd700;" x="586.658882" xlink:href="#m312ff87448" y="222.203251"/>
    </g>
   </g>
   <g id="line2d_207">
    <path clip-path="url(#p8f404a73e2)" d="M 622.39629 273.173539 
" style="fill:none;stroke:#ffd700;stroke-linecap:square;stroke-width:1.5;"/>
    <g clip-path="url(#p8f404a73e2)">
     <use style="fill:#ffd700;stroke:#ffd700;" x="622.39629" xlink:href="#m312ff87448" y="273.173539"/>
    </g>
   </g>
   <g id="line2d_208">
    <path clip-path="url(#p8f404a73e2)" d="M 625.957814 278.99145 
" style="fill:none;stroke:#ffd700;stroke-linecap:square;stroke-width:1.5;"/>
    <g clip-path="url(#p8f404a73e2)">
     <use style="fill:#ffd700;stroke:#ffd700;" x="625.957814" xlink:href="#m312ff87448" y="278.99145"/>
    </g>
   </g>
   <g id="line2d_209">
    <path clip-path="url(#p8f404a73e2)" d="M 579.230204 237.431847 
" style="fill:none;stroke:#ffd700;stroke-linecap:square;stroke-width:1.5;"/>
    <g clip-path="url(#p8f404a73e2)">
     <use style="fill:#ffd700;stroke:#ffd700;" x="579.230204" xlink:href="#m312ff87448" y="237.431847"/>
    </g>
   </g>
   <g id="line2d_210">
    <path clip-path="url(#p8f404a73e2)" d="M 636.300591 262.293536 
" style="fill:none;stroke:#ffd700;stroke-linecap:square;stroke-width:1.5;"/>
    <g clip-path="url(#p8f404a73e2)">
     <use style="fill:#ffd700;stroke:#ffd700;" x="636.300591" xlink:href="#m312ff87448" y="262.293536"/>
    </g>
   </g>
   <g id="line2d_211">
    <path clip-path="url(#p8f404a73e2)" d="M 575.918885 241.484441 
" style="fill:none;stroke:#ffd700;stroke-linecap:square;stroke-width:1.5;"/>
    <g clip-path="url(#p8f404a73e2)">
     <use style="fill:#ffd700;stroke:#ffd700;" x="575.918885" xlink:href="#m312ff87448" y="241.484441"/>
    </g>
   </g>
   <g id="line2d_212">
    <path clip-path="url(#p8f404a73e2)" d="M 611.656294 292.454729 
" style="fill:none;stroke:#ffd700;stroke-linecap:square;stroke-width:1.5;"/>
    <g clip-path="url(#p8f404a73e2)">
     <use style="fill:#ffd700;stroke:#ffd700;" x="611.656294" xlink:href="#m312ff87448" y="292.454729"/>
    </g>
   </g>
   <g id="line2d_213">
    <path clip-path="url(#p8f404a73e2)" style="fill:none;stroke:#ffd700;stroke-linecap:square;stroke-width:1.5;"/>
    <g clip-path="url(#p8f404a73e2)">
     <use style="fill:#ffd700;stroke:#ffd700;" x="594.884284" xlink:href="#m312ff87448" y="306.906772"/>
    </g>
   </g>
   <g id="line2d_214">
    <path clip-path="url(#p8f404a73e2)" d="M 560.913616 254.468219 
" style="fill:none;stroke:#ffd700;stroke-linecap:square;stroke-width:1.5;"/>
    <g clip-path="url(#p8f404a73e2)">
     <use style="fill:#ffd700;stroke:#ffd700;" x="560.913616" xlink:href="#m312ff87448" y="254.468219"/>
    </g>
   </g>
   <g id="line2d_215">
    <path clip-path="url(#p8f404a73e2)" style="fill:none;stroke:#ffd700;stroke-linecap:square;stroke-width:1.5;"/>
    <g clip-path="url(#p8f404a73e2)">
     <use style="fill:#ffd700;stroke:#ffd700;" x="576.641677" xlink:href="#m312ff87448" y="314.699114"/>
    </g>
   </g>
   <g id="line2d_216">
    <path clip-path="url(#p8f404a73e2)" d="M 730.845 137.484 
" style="fill:none;stroke:#ffd700;stroke-linecap:square;stroke-width:1.5;"/>
    <g clip-path="url(#p8f404a73e2)">
     <use style="fill:#ffd700;stroke:#ffd700;" x="730.845" xlink:href="#m312ff87448" y="137.484"/>
    </g>
   </g>
   <g id="line2d_217">
    <path clip-path="url(#p8f404a73e2)" d="M 793.215 136.2366 
" style="fill:none;stroke:#ffd700;stroke-linecap:square;stroke-width:1.5;"/>
    <g clip-path="url(#p8f404a73e2)">
     <use style="fill:#ffd700;stroke:#ffd700;" x="793.215" xlink:href="#m312ff87448" y="136.2366"/>
    </g>
   </g>
   <g id="line2d_218">
    <path clip-path="url(#p8f404a73e2)" d="M 780.741 136.48608 
" style="fill:none;stroke:#008000;stroke-linecap:square;stroke-width:1.5;"/>
    <defs>
     <path d="M 0 4 
C 1.060812 4 2.078319 3.578535 2.828427 2.828427 
C 3.578535 2.078319 4 1.060812 4 0 
C 4 -1.060812 3.578535 -2.078319 2.828427 -2.828427 
C 2.078319 -3.578535 1.060812 -4 0 -4 
C -1.060812 -4 -2.078319 -3.578535 -2.828427 -2.828427 
C -3.578535 -2.078319 -4 -1.060812 -4 0 
C -4 1.060812 -3.578535 2.078319 -2.828427 2.828427 
C -2.078319 3.578535 -1.060812 4 0 4 
z
" id="mb378e3ea15" style="stroke:#008000;"/>
    </defs>
    <g clip-path="url(#p8f404a73e2)">
     <use style="fill:#008000;stroke:#008000;" x="780.741" xlink:href="#mb378e3ea15" y="136.48608"/>
    </g>
   </g>
   <g id="line2d_219">
    <path clip-path="url(#p8f404a73e2)" d="M 356.625 144.9684 
" style="fill:none;stroke:#008000;stroke-linecap:square;stroke-width:1.5;"/>
    <g clip-path="url(#p8f404a73e2)">
     <use style="fill:#008000;stroke:#008000;" x="356.625" xlink:href="#mb378e3ea15" y="144.9684"/>
    </g>
   </g>
   <g id="line2d_220">
    <path clip-path="url(#p8f404a73e2)" d="M 418.995 143.721 
" style="fill:none;stroke:#008000;stroke-linecap:square;stroke-width:1.5;"/>
    <g clip-path="url(#p8f404a73e2)">
     <use style="fill:#008000;stroke:#008000;" x="418.995" xlink:href="#mb378e3ea15" y="143.721"/>
    </g>
   </g>
   <g id="line2d_221">
    <path clip-path="url(#p8f404a73e2)" d="M 481.365 142.4736 
" style="fill:none;stroke:#008000;stroke-linecap:square;stroke-width:1.5;"/>
    <g clip-path="url(#p8f404a73e2)">
     <use style="fill:#008000;stroke:#008000;" x="481.365" xlink:href="#mb378e3ea15" y="142.4736"/>
    </g>
   </g>
   <g id="line2d_222">
    <path clip-path="url(#p8f404a73e2)" d="M 543.735 141.2262 
" style="fill:none;stroke:#008000;stroke-linecap:square;stroke-width:1.5;"/>
    <g clip-path="url(#p8f404a73e2)">
     <use style="fill:#008000;stroke:#008000;" x="543.735" xlink:href="#mb378e3ea15" y="141.2262"/>
    </g>
   </g>
   <g id="line2d_223">
    <path clip-path="url(#p8f404a73e2)" d="M 606.105 139.9788 
" style="fill:none;stroke:#008000;stroke-linecap:square;stroke-width:1.5;"/>
    <g clip-path="url(#p8f404a73e2)">
     <use style="fill:#008000;stroke:#008000;" x="606.105" xlink:href="#mb378e3ea15" y="139.9788"/>
    </g>
   </g>
   <g id="line2d_224">
    <path clip-path="url(#p8f404a73e2)" d="M 668.475 138.7314 
" style="fill:none;stroke:#008000;stroke-linecap:square;stroke-width:1.5;"/>
    <g clip-path="url(#p8f404a73e2)">
     <use style="fill:#008000;stroke:#008000;" x="668.475" xlink:href="#mb378e3ea15" y="138.7314"/>
    </g>
   </g>
   <g id="line2d_225">
    <path clip-path="url(#p8f404a73e2)" d="M 730.845 137.484 
" style="fill:none;stroke:#008000;stroke-linecap:square;stroke-width:1.5;"/>
    <g clip-path="url(#p8f404a73e2)">
     <use style="fill:#008000;stroke:#008000;" x="730.845" xlink:href="#mb378e3ea15" y="137.484"/>
    </g>
   </g>
   <g id="line2d_226">
    <path clip-path="url(#p8f404a73e2)" d="M 780.741 136.48608 
" style="fill:none;stroke:#008000;stroke-linecap:square;stroke-width:1.5;"/>
    <g clip-path="url(#p8f404a73e2)">
     <use style="fill:#008000;stroke:#008000;" x="780.741" xlink:href="#mb378e3ea15" y="136.48608"/>
    </g>
   </g>
  </g>
 </g>
 <defs>
  <clipPath id="p8f404a73e2">
   <rect height="277.2" width="906.75" x="7.2" y="7.2"/>
  </clipPath>
 </defs>
</svg>
